<?xml version="1.0" encoding="UTF-8"?>
<svg version="1.1" viewBox="0 0 1600 1600" width="1280" height="1280" xmlns="http://www.w3.org/2000/svg">
<path transform="translate(28)" d="m0 0c0.33 0.66 0.66 1.32 1 2 0.66-0.33 1.32-0.66 2-1 1.43-0.0939 2.87-0.126 4.3-0.126 0.912-0.00267 1.82-0.00534 2.76-0.00809 1.01 0.00215 2.02 0.00431 3.06 0.00653 1.07-0.00165 2.14-0.0033 3.25-5e-3 3.64-0.00436 7.29-0.00151 10.9 0.00123 2.63-0.00165 5.26-0.00369 7.89-0.00622 5.76-0.00473 11.5-0.00569 17.3-0.00427 8.63 0.00211 17.3-0.00148 25.9-0.00621 14.7-0.00789 29.4-0.011 44.1-0.0114 14.9-5.02e-4 29.8-0.00314 44.7-0.00841 0.94-3.3e-4 1.88-6.6e-4 2.85-1e-3 3.83-0.00135 7.66-0.00271 11.5-0.00409 45.4-0.0163 90.7-0.0227 136-0.0274 22.6-0.00238 45.2-0.00608 67.7-0.01 72.4-0.0127 145-0.0234 217-0.0268 3.46-1.62e-4 6.92-3.28e-4 10.4-4.94e-4 6.94-3.34e-4 13.9-6.64e-4 20.8-9.95e-4 8.13-3.87e-4 16.3-7.77e-4 24.4-0.00117 2.33-1.12e-4 4.65-2.24e-4 6.98-3.34e-4 74.7-0.00355 149-0.0186 224-0.0419 53.7-0.0167 107-0.0322 161-0.0367 1.1-9.35e-5 2.21-1.87e-4 3.34-2.83e-4 24.2-0.00202 48.4-0.00318 72.7-0.00353 8.67-1.36e-4 17.3-3.45e-4 26-5.93e-4 2.16-6.16e-5 4.31-1.2e-4 6.47-1.75e-4 34.4-9.21e-4 68.8-0.0109 103-0.0255 34.6-0.0146 69.3-0.0197 104-0.0116 4.78 0.00112 9.56 0.00213 14.3 0.00307 0.937 1.9e-4 1.87 3.8e-4 2.84 5.76e-4 14.9 0.00274 29.7-0.00462 44.6-0.0161 14.6-0.0111 29.2-0.0116 43.8-6.3e-4 8.57 0.00612 17.1 0.00395 25.7-0.0103 5.68-0.00861 11.4-0.00643 17.1 0.0047 3.23 0.00601 6.45 0.00563 9.68-0.00468 3.46-0.0103 6.93-0.00239 10.4 0.0103 1.5-0.0111 1.5-0.0111 3.03-0.0224 9.29 0.0721 15.8 3.16 22.7 9.4 8.51 9.6 11.3 19.2 11.3 31.7 0.00305 1.08 0.00611 2.15 0.00925 3.26 0.00783 3.63 0.00136 7.25-0.00498 10.9 0.00269 2.63 0.00618 5.26 0.0106 7.89 0.00811 5.75 0.00876 11.5 0.00459 17.2-0.00621 8.6-9.28e-4 17.2 0.0066 25.8 0.0125 14.7 0.0154 29.3 0.0132 44-0.00225 14.9-1.87e-4 29.7 0.00714 44.6 4.59e-4 0.938 9.19e-4 1.88 0.00139 2.84 0.00188 3.82 0.00379 7.64 0.00574 11.5 0.0203 39.9 0.0264 79.7 0.0276 120 1.29e-4 4.29 2.65e-4 8.59 4.07e-4 12.9 3.4e-5 1.07 6.8e-5 2.13 1.03e-4 3.23 8.17e-4 23.6 0.0052 47.2 0.0102 70.8 0.00206 9.71 0.00404 19.4 0.00603 29.1 2.21e-4 1.07 4.42e-4 2.15 6.7e-4 3.25 0.0127 61.5 0.0209 123 0.02 184-3.16e-5 2.3-6.3e-5 4.6-9.44e-5 6.91-1.47e-4 10.4-3.23e-4 20.8-5.08e-4 31.2-8.22e-5 4.63-1.63e-4 9.27-2.43e-4 13.9-4.08e-5 2.32-8.28e-5 4.64-1.26e-4 6.96-0.00136 73.4 0.0133 147 0.0411 220 7e-3 18.5 0.0139 37 0.0205 55.5 4.06e-4 1.14 8.11e-4 2.28 0.00123 3.45 0.0124 35.1 0.02 70.1 0.0225 105 1.2e-4 1.65 1.2e-4 1.65 2.42e-4 3.34 0.00171 24.2 0.00223 48.3 0.00166 72.5-1.93e-4 8.65-2.97e-4 17.3-3.57e-4 25.9-1.58e-5 2.15-3.62e-5 4.3-6.12e-5 6.45-3.53e-4 34.3 0.0111 68.6 0.0283 103 0.0173 34.5 0.0217 69.1 0.00848 104-0.00182 4.77-0.00351 9.54-0.00512 14.3-4.8e-4 1.4-4.8e-4 1.4-9.7e-4 2.83-0.00471 14.8 0.00402 29.6 0.0183 44.5 0.0138 14.6 0.0133 29.1-0.00238 43.7-0.00878 8.54-0.00657 17.1 0.0117 25.6 0.0111 5.67 0.00768 11.3-0.00757 17-0.00824 3.22-0.00804 6.43 0.0055 9.65 0.0136 3.46 0.00261 6.92-0.0145 10.4 0.0098 0.989 0.0196 1.98 0.0297 3-0.113 10.9-4.36 19.8-11.8 27.7-8.34 8.07-18.3 9.68-29.5 9.63-1.08 0.00318-2.15 0.00635-3.26 0.00963-3.62 0.00825-7.25 0.0022-10.9-0.00372-2.63 3e-3 -5.25 0.00678-7.88 0.0115-5.74 0.00877-11.5 0.0101-17.2 0.00657-8.59-0.00522-17.2 0.00103-25.8 0.00951-14.6 0.0141-29.3 0.0187-43.9 0.018-14.8-6.21e-4 -29.7 0.00305-44.5 0.012-0.937 5.6e-4 -1.87 0.00112-2.84 0.0017-3.82 0.00229-7.63 0.00461-11.4 0.00696-39.8 0.0245-79.7 0.0347-119 0.0395-4.29 5.24e-4 -8.58 0.00105-12.9 0.00158-1.06 1.29e-4 -2.13 2.58e-4 -3.23 3.91e-4 -23.6 0.0029-47.1 0.00906-70.7 0.0157-9.7 0.00272-19.4 0.00535-29.1 0.00799-1.07 2.91e-4 -2.14 5.82e-4 -3.25 8.82e-4 -61.4 0.0166-123 0.0285-184 0.0309-2.3 9.46e-5 -4.6 1.9e-4 -6.9 2.85e-4 -10.4 4.28e-4 -20.8 8.33e-4 -31.2 0.00124-4.63 1.82e-4 -9.26 3.66e-4 -13.9 5.52e-4 -2.32 9.2e-5 -4.64 1.82e-4 -6.95 2.71e-4 -73.3 0.00281-147 0.0245-220 0.0614-54.7 0.0275-109 0.0534-164 0.0599-1.1 1.33e-4 -2.2 2.67e-4 -3.33 4.04e-4 -24.1 0.00287-48.3 0.00429-72.4 0.00436-8.64 3.97e-5 -17.3 1.97e-4 -25.9 4.15e-4 -2.15 5.36e-5 -4.3 1.02e-4 -6.45 1.44e-4 -34.3 7.44e-4 -68.5 0.0164-103 0.0396-34.5 0.0233-69 0.0305-104 0.0158-4.77-0.00203-9.53-0.00388-14.3-0.00563-0.934-3.5e-4 -1.87-7e-4 -2.83-0.00106-14.8-0.00509-29.6 0.00662-44.4 0.0253-14.6 0.018-29.1 0.0182-43.7-5.62e-4 -8.53-0.0105-17.1-0.00728-25.6 0.0161-5.67 0.0142-11.3 0.0102-17-0.00848-3.21-0.0101-6.43-0.00972-9.64 0.00744-16.1 0.0805-29.7-0.118-42.6-11.1-5.98-6.76-10.4-16-10.4-25.1-0.00267-0.914-0.00534-1.83-0.00809-2.77 0.00215-1 0.00431-2.01 0.00653-3.04-0.00165-1.07-0.0033-2.14-5e-3 -3.25-0.00435-3.63-0.00152-7.26 0.00123-10.9-0.00165-2.62-0.00373-5.25-0.00622-7.87-0.00472-5.74-0.0057-11.5-0.00427-17.2 0.00212-8.6-0.00149-17.2-0.00621-25.8-0.00788-14.7-0.011-29.3-0.0114-44-5.02e-4 -14.9-0.00314-29.7-0.00841-44.6-3.3e-4 -0.937-6.6e-4 -1.87-1e-3 -2.84-0.00135-3.82-0.00271-7.63-0.00409-11.5-0.0163-45.2-0.0227-90.5-0.0274-136-0.00238-22.5-0.00609-45-0.01-67.5-0.0127-72.2-0.0234-144-0.0268-217-1.62e-4 -3.45-3.28e-4 -6.9-4.94e-4 -10.4-3.34e-4 -6.92-6.64e-4 -13.8-9.95e-4 -20.8-3.87e-4 -8.1-7.77e-4 -16.2-0.00117-24.3-1.12e-4 -2.32-2.24e-4 -4.64-3.34e-4 -6.96-0.00355-74.5-0.0186-149-0.0419-224-0.0167-53.5-0.0322-107-0.0367-161-9.35e-5 -1.1-1.87e-4 -2.2-2.83e-4 -3.33-0.00202-24.2-0.00318-48.3-0.00353-72.5-1.36e-4 -8.64-3.45e-4 -17.3-5.93e-4 -25.9-6.16e-5 -2.15-1.2e-4 -4.3-1.75e-4 -6.45-9.21e-4 -34.3-0.0109-68.6-0.0255-103-0.0146-34.5-0.0197-69.1-0.0116-104 0.00112-4.77 0.00213-9.53 0.00307-14.3 1.9e-4 -0.935 3.8e-4 -1.87 5.76e-4 -2.83 0.00274-14.8-0.00462-29.6-0.0161-44.5-0.0111-14.6-0.0116-29.1-6.3e-4 -43.7 0.00611-8.54 0.00396-17.1-0.0103-25.6-0.00862-5.67-0.00642-11.3 0.0047-17 6e-3 -3.22 0.00565-6.43-0.00468-9.65-0.0104-3.46-0.00237-6.91 0.0103-10.4-0.00741-0.991-0.0148-1.98-0.0224-3 0.0905-11.7 4.35-19.8 11.6-28.7 3.89-3.19 8.21-5.14 12.8-7.25 1.34-0.662 2.67-1.33 4-2z" fill="#E9F1F3"/>
<path transform="translate(694 1064)" d="m0 0c1.54 5.7e-4 1.54 5.7e-4 3.11 0.00115 1.18-0.00199 2.36-0.00398 3.57-0.00603 1.31 0.00291 2.62 0.00583 3.98 0.00883 1.4-4.36e-4 2.79-0.00131 4.19-0.00259 3.85-0.00225 7.7 0.00178 11.6 0.00678 4.15 0.0043 8.29 0.00286 12.4 0.0021 7.19-5.25e-4 14.4 0.00262 21.6 0.00824 10.4 0.00811 20.8 0.0107 31.2 0.012 16.9 0.00219 33.7 0.00885 50.6 0.0183 16.4 0.00917 32.8 0.0163 49.2 0.0205 1.01 2.63e-4 2.02 5.25e-4 3.06 7.96e-4 5.06 0.0013 10.1 0.00257 15.2 0.00381 42 0.0104 84.1 0.028 126 0.0503 0.389 1.62 0.761 3.25 1.12 4.87 0.209 0.905 0.418 1.81 0.633 2.74 0.0799 0.786 0.16 1.57 0.242 2.38-2.45 2.45-3.8 2.25-7.15 2.28-0.722-0.00193-1.44-0.00387-2.19-0.00586-1.15 0.00869-1.15 0.00869-2.32 0.0176-2.59 0.0171-5.18 0.0199-7.77 0.0228-1.85 0.0093-3.71 0.0195-5.56 0.0304-5.08 0.0275-10.2 0.0425-15.2 0.0554-5.42 0.0158-10.8 0.0426-16.3 0.068-9.21 0.0417-18.4 0.0761-27.6 0.105-12.6 0.0401-25.2 0.0932-37.8 0.149-28.4 0.125-56.7 0.21-85.1 0.273-1.17 0.00262-2.34 0.00524-3.54 0.00793-15.3 0.0339-30.5 0.0589-45.8 0.0716-4.37 0.00372-8.75 0.00958-13.1 0.0175-12.4 0.021-24.7 0.01-37.1-0.0802-2.38-0.0164-4.77-0.0278-7.15-0.0389-4.12-0.0232-8.24-0.092-12.4-0.171-1.17-0.00538-2.33-0.0108-3.53-0.0163-8.49-0.231-8.49-0.231-11.7-3.34-0.579-0.808-1.16-1.62-1.75-2.45 2.22-6.96 2.22-6.96 5.29-7.12z" fill="#000204"/>
<path transform="translate(702 1131)" d="m0 0c1.12-0.00659 2.24-0.0132 3.39-0.02 1.22 0.00806 2.45 0.0161 3.71 0.0244 1.3-0.00327 2.61-0.00654 3.95-0.00991 3.62-0.00865 7.24 0.00142 10.9 0.0145 3.9 0.0109 7.81 0.00449 11.7 2.16e-4 7.65-0.00564 15.3 0.00469 22.9 0.0203 8.91 0.0175 17.8 0.019 26.7 0.0196 15.9 0.00169 31.8 0.0175 47.7 0.0415 15.4 0.0232 30.8 0.0374 46.3 0.041 1.42 3.34e-4 1.42 3.34e-4 2.88 6.75e-4 1.91 4.43e-4 3.82 8.85e-4 5.73 0.00133 1.41 3.29e-4 1.41 3.29e-4 2.86 6.65e-4 0.941 2.16e-4 1.88 4.32e-4 2.85 6.55e-4 14.7 0.00371 29.4 0.0151 44.1 0.0275 5.32 0.00443 10.6 0.00787 16 0.0106 8.45 0.00444 16.9 0.0122 25.3 0.0268 3.86 0.00659 7.72 0.0117 11.6 0.0125 4.19 9.37e-4 8.38 0.00965 12.6 0.0191 1.82-0.0013 1.82-0.0013 3.67-0.00263 19.1 0.0648 19.1 0.0648 22.8 3.71 0.619 0.804 1.24 1.61 1.88 2.44-1.31 1.94-1.31 1.94-4 4-7.99 1.51-16.4 1.15-24.5 1.14-1.33 0.00259-2.67 0.0056-4 9e-3 -3.64 8e-3 -7.28 0.00986-10.9 0.0106-3.94 0.00186-7.87 0.00942-11.8 0.0161-8.59 0.0135-17.2 0.0196-25.8 0.024-5.36 0.00277-10.7 0.00701-16.1 0.0115-14.9 0.0122-29.7 0.0225-44.6 0.0259-1.42 3.29e-4 -1.42 3.29e-4 -2.87 6.65e-4 -0.951 2.18e-4 -1.9 4.37e-4 -2.88 6.61e-4 -1.93 4.43e-4 -3.85 8.9e-4 -5.78 0.00134-1.43 3.32e-4 -1.43 3.32e-4 -2.9 6.71e-4 -15.5 0.00396-31 0.0214-46.5 0.0447-15.9 0.0237-31.9 0.0362-47.8 0.0373-8.95 9.17e-4 -17.9 0.00669-26.8 0.0248-7.61 0.0154-15.2 0.0205-22.8 0.0123-3.88-0.00392-7.77-0.00293-11.6 0.0111-4.2 0.015-8.41 0.0069-12.6-0.00358-1.23 0.00806-2.47 0.0161-3.74 0.0244-1.12-0.00659-2.25-0.0132-3.4-0.02-1.46 8.96e-4 -1.46 8.96e-4 -2.94 0.00181-2.96-0.434-4.34-1.41-6.55-3.37 0.188-2.31 0.188-2.31 1-5 3.58-2.67 6.16-3.37 10.6-3.37z" fill="#000204"/>
<path transform="translate(699 475)" d="m0 0c0.957-0.00261 1.91-0.00522 2.9-0.0079 1.59 0.00335 1.59 0.00335 3.21 0.00676 1.12-0.00156 2.24-0.00312 3.39-0.00473 3.78-0.00401 7.56-8.19e-4 11.3 0.00232 2.7-8.04e-4 5.4-0.0031 8.11-0.00531 6.61-0.00446 13.2-0.00348 19.8-5.87e-4 5.39 0.00226 10.8 0.00256 16.2 0.00148 1.15-2.3e-4 1.15-2.3e-4 2.33-4.64e-4 1.56-3.2e-4 3.13-6.44e-4 4.69-9.73e-4 14.7-0.00286 29.4 4.33e-4 44.1 0.0058 12.5 0.00443 25 0.00373 37.5-9.19e-4 14.6-0.00541 29.1-0.00742 43.7-0.00439 1.57 3.18e-4 3.14 6.33e-4 4.71 9.43e-4 0.772 1.54e-4 1.54 3.09e-4 2.34 4.68e-4 5.34 8.49e-4 10.7-5.91e-4 16-0.00295 19-0.00743 38.1 0.0251 57.1 0.136 1.21 0.00644 2.43 0.0129 3.68 0.0195 6.83 0.0386 13.7 0.0996 20.5 0.198 2.03 0.0268 4.05 0.0473 6.08 0.0608 2.73 0.0201 5.47 0.065 8.2 0.117 1.18 0.00122 1.18 0.00122 2.38 0.00246 5.13 0.136 8.32 1.16 12.2 4.6v4c-7.13 2.21-13.8 2.28-21.3 2.26-1.34 0.00302-2.69 0.00691-4.03 0.0116-3.68 0.0103-7.35 0.0081-11 0.00382-3.97-0.00247-7.94 0.00655-11.9 0.014-7.77 0.0127-15.5 0.0145-23.3 0.0122-6.32-0.00178-12.6-3.2e-5 -18.9 0.00422-0.899 5.95e-4 -1.8 0.00119-2.72 0.0018-1.83 0.00121-3.65 0.00243-5.48 0.00364-17.1 0.0109-34.2 0.00871-51.4 0.00262-15.7-0.00517-31.3 0.0061-47 0.0251-16.1 0.0194-32.2 0.0276-48.3 0.0239-9.03-0.00191-18.1 5.91e-4 -27.1 0.0147-7.69 0.0119-15.4 0.0133-23.1 0.00121-3.92-0.0059-7.84-0.00696-11.8 5e-3 -3.59 0.0108-7.18 0.0078-10.8-0.00626-1.91-0.00392-3.83 0.00693-5.74 0.0183-10.6-0.0668-10.6-0.0668-15.2-3.4-1.06-2-1.06-2-1-4 2.76-3.55 5.18-4.12 9.52-4.13z" fill="#000204"/>
<path transform="translate(547 492)" d="m0 0c1.23-0.00234 1.23-0.00234 2.48-0.00473 2.76-0.00401 5.51-8.25e-4 8.26 0.00232 1.98-0.00133 3.96-0.00308 5.94-0.00522 5.43-0.00453 10.9-0.00266 16.3 4.2e-4 4.6 0.00186 9.2 1.73e-4 13.8-0.00156 13.6-0.00511 27.3-6.03e-4 40.9 0.00679 6.42 0.00347 12.8 0.00575 19.3 0.00758 62.4 0.0178 125 0.0635 187 0.455 5.27 0.0329 10.5 0.0611 15.8 0.0876 6.95 0.0352 13.9 0.0816 20.8 0.137 2.49 0.0184 4.97 0.0336 7.46 0.0454 3.32 0.0166 6.65 0.0454 9.97 0.0778 0.962 0.00216 1.92 0.00432 2.92 0.00654 0.876 0.0112 1.75 0.0223 2.65 0.0338 0.753 0.00553 1.51 0.0111 2.28 0.0168 2.44 0.307 4.03 0.916 6.08 2.26 0.33 0.99 0.66 1.98 1 3-6.68 6.4-19.3 4.18-28 4.22-1.63 0.0112-3.27 0.0228-4.9 0.0348-4.47 0.0313-8.95 0.0564-13.4 0.0802-3.82 0.0209-7.65 0.0449-11.5 0.0688-12.5 0.0778-25 0.142-37.5 0.204-3.25 0.0162-6.49 0.0328-9.74 0.0497-62.3 0.323-125 0.422-187 0.0741-6.42-0.0358-12.8-0.067-19.3-0.0968-8.59-0.0403-17.2-0.0927-25.8-0.154-3.14-0.0222-6.28-0.0403-9.42-0.0545-3.59-0.0166-7.19-0.0425-10.8-0.0762-1.92-0.0157-3.83-0.0217-5.75-0.0275-1.13-0.0126-2.26-0.0252-3.43-0.0382-1.47-0.0102-1.47-0.0102-2.96-0.0207-2.7-0.278-4.32-0.741-6.56-2.26-0.33-0.99-0.66-1.98-1-3 3.36-5.71 7.88-5.14 13.9-5.13z" fill="#000204"/>
<path transform="translate(899 1098)" d="m0 0c23.6-0.0573 47.3-0.0975 70.9-0.123 7.22-0.00789 14.4-0.0197 21.7-0.0326 8.81-0.0155 17.6-0.0231 26.4-0.0209 4.5 9.84e-4 9-0.00114 13.5-0.0118 4.12-0.00959 8.25-0.00988 12.4-0.00264 1.49 0.00101 2.99-0.00136 4.48-0.00742 2.03-0.0077 4.06-0.00188 6.09 0.00464 1.13-5.45e-4 2.26-0.00109 3.42-0.00165 3.1 0.256 5.26 0.803 8.01 2.25 1.31 2.62 1.31 2.62 2 5-1.57 1.86-2.49 2.89-4.91 3.4-0.73 0.0106-1.46 0.0212-2.21 0.0321-1.27 0.0289-1.27 0.0289-2.56 0.0583-1.4 0.00879-1.4 0.00879-2.82 0.0178-0.991 0.0175-1.98 0.0351-3 0.0531-3.35 0.0546-6.71 0.0867-10.1 0.118-2.42 0.0326-4.84 0.066-7.26 0.1-31 0.402-62 0.388-93 0.39-5.15 5.03e-4 -10.3 0.00281-15.4 0.0055-17.1 0.00873-34.2 0.0134-51.2 0.0127-0.909-4e-5 -1.82-7.99e-5 -2.75-1.21e-4 -0.91-4.09e-5 -1.82-8.18e-5 -2.76-1.24e-4 -14.9-4.1e-4 -29.7 0.00927-44.6 0.0233-15.4 0.0144-30.8 0.0213-46.1 0.0204-8.59-3.31e-4 -17.2 0.00238-25.8 0.0132-7.28 0.00909-14.6 0.0113-21.8 0.00449-3.71-0.00327-7.41-0.00332-11.1 0.00535-4.01 0.0093-8.03 0.0031-12-0.00463-1.75 0.00772-1.75 0.00772-3.54 0.0156-5.69-0.0243-10.5-0.321-15.9-2.26 0.302-1.86 0.302-1.86 1-4 7-4.9 14-4.58 22.3-4.55 1.46-0.00875 2.92-0.0192 4.38-0.0313 4-0.028 7.99-0.0312 12-0.0303 4.32-0.00325 8.64-0.0293 13-0.0524 8.47-0.0416 16.9-0.0617 25.4-0.0743 6.89-0.0108 13.8-0.0301 20.7-0.0552 0.982-0.00358 1.96-0.00717 2.98-0.0109 2-0.00732 3.99-0.0147 5.99-0.022 19.9-0.0721 39.8-0.114 59.7-0.145 14.3-0.0223 28.5-0.0517 42.8-0.0863z" fill="#000204"/>
<path transform="translate(558 1083)" d="m0 0c1.52-0.00489 3.03-0.0111 4.55-0.0185 4.15-0.0164 8.29-0.0141 12.4-0.00863 4.48 0.00268 8.96-0.0119 13.4-0.0241 8.76-0.021 17.5-0.0256 26.3-0.0238 7.12 0.00131 14.2-0.0025 21.4-0.00993 2.05-0.0021 4.1-0.0042 6.16-0.00629 1.02-0.00104 2.04-0.00209 3.09-0.00316 19.3-0.0189 38.6-0.0179 57.9-0.011 17.7 0.00558 35.3-0.0153 53-0.0484 18.1-0.0337 36.3-0.0489 54.4-0.0443 10.2 0.00225 20.4-0.00305 30.6-0.0279 8.67-0.021 17.3-0.0247 26-0.0057 4.42 0.00919 8.85 0.0102 13.3-0.0104 4.05-0.0186 8.09-0.0143 12.1 0.00855 1.47 0.00422 2.94-1.14e-4 4.4-0.0136 1.99-0.017 3.97-5.53e-4 5.96 0.0178 1.66-4.09e-4 1.66-4.09e-4 3.35-8.25e-4 2.71 0.624 2.71 0.624 4.61 3.02 1.1 2.6 1.1 2.6 0.723 4.85-2.43 2.61-5.22 2.49-8.62 2.75-4.1 0.137-8.2 0.135-12.3 0.127-1.24 0.00156-2.48 0.00312-3.76 0.00473-3.43 0.00329-6.87 0.00211-10.3-9.86e-4 -3.71-0.00227-7.42 0.00123-11.1 0.00398-7.28 0.00445-14.6 0.00348-21.8 5.87e-4 -5.94-0.00227-11.9-0.00256-17.8-0.00148-0.849 1.53e-4 -1.7 3.06e-4 -2.57 4.64e-4 -1.73 3.2e-4 -3.45 6.44e-4 -5.18 9.73e-4 -16.2 0.00285-32.4-4.28e-4 -48.6-0.0058-13.8-0.00443-27.6-0.00373-41.3 9.19e-4 -16.1 0.00541-32.1 0.00742-48.2 0.00439-1.73-3.18e-4 -3.47-6.33e-4 -5.2-9.43e-4 -1.28-2.31e-4 -1.28-2.31e-4 -2.58-4.68e-4 -5.88-8.48e-4 -11.8 5.8e-4 -17.7 0.00295-32 0.0117-64-0.0374-96-0.582-1.21-0.0194-2.42-0.0388-3.66-0.0588-3.34-0.0553-6.67-0.118-10-0.184-0.981-0.0163-1.96-0.0326-2.97-0.0494-1.33-0.0293-1.33-0.0293-2.69-0.0591-1.15-0.0227-1.15-0.0227-2.33-0.0459-1.87-0.157-1.87-0.157-3.87-1.16 0.33-1.65 0.66-3.3 1-5 8.01-3.31 15.4-3.43 24-3.39z" fill="#000204"/>
<path transform="translate(702 509)" d="m0 0c1.29-0.00583 2.58-0.0117 3.91-0.0177 1.44 0.00363 2.87 0.00746 4.31 0.0115 1.52-0.00302 3.05-0.00691 4.57-0.0116 4.19-0.0103 8.38-0.00809 12.6-0.00382 4.52 0.00246 9.03-0.00654 13.6-0.014 8.85-0.0128 17.7-0.0145 26.6-0.0122 7.19 0.00178 14.4 3.82e-5 21.6-0.00422 1.02-5.95e-4 2.04-0.00119 3.1-0.0018 2.08-0.00121 4.15-0.00243 6.23-0.00364 19.5-0.0109 39-0.00871 58.5-0.00262 17.8 0.00517 35.7-0.00609 53.5-0.0251 18.3-0.0194 36.6-0.0276 54.9-0.0239 10.3 0.00192 20.6-6.09e-4 30.8-0.0147 8.75-0.0119 17.5-0.0134 26.3-0.00121 4.47 0.00591 8.94 0.00693 13.4-5e-3 4.09-0.0108 8.17-0.00784 12.3 0.00626 1.48 0.00267 2.96 2.21e-4 4.45-0.00774 2.01-0.01 4.02 6.65e-5 6.02 0.0113 1.68-8.25e-5 1.68-8.25e-5 3.39-1.67e-4 3.16 0.415 4.54 1.24 6.86 3.37-0.25 2.38-0.25 2.38-1 5-3.3 2.29-6.29 2.25-10.2 2.26-1.29 0.00645-2.57 0.0129-3.9 0.0195-1.43-0.00294-2.86-0.00608-4.29-0.00939-1.52 0.00374-3.03 0.00834-4.55 0.0137-4.18 0.0123-8.35 0.012-12.5 0.00961-4.5-4.07e-4 -9 0.0106-13.5 0.0201-8.82 0.0166-17.6 0.0221-26.5 0.0232-7.17 9.5e-4 -14.3 0.00506-21.5 0.0114-20.3 0.0176-40.6 0.0268-60.9 0.0253-1.1-7.99e-5 -2.19-1.6e-4 -3.32-2.42e-4 -1.1-8.18e-5 -2.19-1.64e-4 -3.32-2.48e-4 -17.8-8.13e-4 -35.6 0.0183-53.3 0.0465-18.2 0.0287-36.5 0.0425-54.7 0.0408-10.2-6.65e-4 -20.5 0.00486-30.7 0.0264-8.72 0.0182-17.4 0.0226-26.2 0.00898-4.45-0.00654-8.9-0.00659-13.4 0.0107-4.07 0.0157-8.15 0.0129-12.2-0.00457-1.48-0.00308-2.95 6.11e-4 -4.43 0.0117-2 0.0141-4.01 0.00116-6.01-0.0131-1.11 4.35e-4 -2.23 8.69e-4 -3.37 0.00132-3.82-0.615-6.05-2.18-9.1-4.5 0.929-2.32 1.58-3.72 3.69-5.12 2.96-1.13 5.38-1.14 8.56-1.14z" fill="#000204"/>
<path transform="translate(563 1047)" d="m0 0c1.31-0.00227 2.61-0.00453 3.96-0.00687 3.59-0.00606 7.18-0.00599 10.8-0.00481 3.88 2.05e-4 7.77-0.00533 11.7-0.0101 7.59-0.00828 15.2-0.0111 22.8-0.0116 6.17-4.76e-4 12.3-0.00254 18.5-0.0057 17.5-0.00879 35-0.0134 52.5-0.0127 1.41 5.99e-5 1.41 5.99e-5 2.85 1.21e-4 0.943 4.09e-5 1.89 8.18e-5 2.86 1.24e-4 15.3 4.07e-4 30.6-0.00918 45.9-0.0233 15.7-0.0144 31.5-0.0213 47.2-0.0204 8.83 3.32e-4 17.7-0.00242 26.5-0.0132 7.51-0.00909 15-0.0113 22.5-0.00449 3.83 0.00327 7.66 0.0033 11.5-0.00535 4.15-0.00927 8.3-0.00311 12.4 0.00463 1.21-0.00514 2.43-0.0103 3.68-0.0156 1.67 0.0069 1.67 0.0069 3.36 0.0139 0.958-2.17e-4 1.92-4.35e-4 2.9-6.59e-4 2.93 0.276 5.03 0.904 7.65 2.25 2 3 2 3 1.62 5.19-0.309 0.897-0.309 0.897-0.625 1.81-7.56 2.03-14.6 2.28-22.4 2.26-1.35 0.00302-2.7 0.00692-4.05 0.0116-3.69 0.0102-7.37 0.00811-11.1 0.00382-3.98-0.00247-7.97 0.00655-12 0.014-7.8 0.0127-15.6 0.0145-23.4 0.0122-6.33-0.00178-12.7-3.1e-5 -19 0.00422-1.35 8.93e-4 -1.35 8.93e-4 -2.73 0.0018-1.83 0.00121-3.67 0.00243-5.5 0.00364-17.2 0.0109-34.3 0.00872-51.5 0.00262-15.7-0.00517-31.4 0.0061-47.1 0.0251-16.1 0.0194-32.3 0.0276-48.4 0.0239-9.06-0.00191-18.1 5.96e-4 -27.2 0.0147-7.71 0.0119-15.4 0.0133-23.1 0.00121-3.93-0.0059-7.87-0.00695-11.8 5e-3 -3.6 0.0108-7.2 0.00782-10.8-0.00626-1.92-0.00392-3.84 0.00694-5.76 0.0183-1.14-0.00721-2.28-0.0144-3.45-0.0218-0.984 5.5e-5 -1.97 1.1e-4 -2.98 1.67e-4 -3.21-0.445-5.1-1.48-7.7-3.37-0.33-0.66-0.66-1.32-1-2 2.23-3.11 3.63-4.74 7.47-5.46 7.68-0.498 15.3-0.679 23-0.669z" fill="#000204"/>
<path transform="translate(702 541)" d="m0 0c1.74-0.00988 1.74-0.00988 3.51-0.02 1.27 0.00806 2.53 0.0161 3.84 0.0244 1.36-0.00202 2.73-0.00536 4.09-0.00991 3.74-0.00865 7.49 0.00142 11.2 0.0145 4.04 0.0109 8.08 0.00449 12.1 2.16e-4 7.91-0.00564 15.8 0.00469 23.7 0.0203 9.21 0.0175 18.4 0.019 27.6 0.0196 16.4 0.00169 32.8 0.0175 49.3 0.0415 15.9 0.0233 31.9 0.0374 47.8 0.041 0.982 2.23e-4 1.96 4.46e-4 2.98 6.75e-4 1.98 4.43e-4 3.96 8.85e-4 5.94 0.00133 1.46 3.29e-4 1.46 3.29e-4 2.96 6.65e-4 1.46 3.24e-4 1.46 3.24e-4 2.95 6.55e-4 15.2 0.0037 30.4 0.0151 45.6 0.0275 5.51 0.00444 11 0.00787 16.5 0.0106 8.73 0.00443 17.5 0.0122 26.2 0.0268 3.99 0.00661 7.98 0.0117 12 0.0125 3.65 7.86e-4 7.3 0.00618 11 0.0153 1.95 0.00371 3.9 0.00253 5.86 0.00119 1.15 0.00384 2.31 0.00768 3.5 0.0116 1.5 0.00187 1.5 0.00187 3.02 0.00378 2.4 0.117 4.36 0.28 6.61 1.13 1.25 2.56 1.25 2.56 2 5-2.09 2.45-3.36 3.85-6.54 4.61-0.944 0.0455-1.89 0.0911-2.86 0.138-1.6 0.0829-1.6 0.0829-3.23 0.167-5.67 0.149-11.3 0.21-17 0.184-1.34-0.00227-2.67-0.00409-4.01-0.00551-3.64-0.00517-7.27-0.0167-10.9-0.0294-3.93-0.0126-7.87-0.0193-11.8-0.0268-7.69-0.0156-15.4-0.037-23.1-0.0606-6.25-0.0192-12.5-0.0366-18.7-0.0529-17.7-0.0464-35.5-0.0971-53.2-0.153-0.954-0.00303-1.91-0.00605-2.89-0.00917-0.955-0.00303-1.91-0.00606-2.89-0.00919-15.5-0.049-31-0.0879-46.5-0.122-15.9-0.0354-31.9-0.0782-47.8-0.129-8.94-0.0282-17.9-0.0534-26.8-0.0707-7.61-0.0147-15.2-0.0363-22.8-0.0669-3.88-0.0154-7.76-0.0275-11.6-0.0311-4.2-0.00394-8.4-0.0232-12.6-0.044-1.23 0.00125-2.47 0.00251-3.74 0.0038-1.12-0.00808-2.24-0.0162-3.4-0.0245-0.97-0.00282-1.94-0.00564-2.94-0.00855-2.64-0.265-4.28-0.913-6.55-2.26 0.188-2.31 0.188-2.31 1-5 3.63-2.73 6.27-3.37 10.8-3.37z" fill="#000204"/>
<path transform="translate(632 1115)" d="m0 0c5.49 0.00231 11 0.00256 16.5 0.00149 0.791-1.53e-4 1.58-3.06e-4 2.4-4.64e-4 1.61-3.2e-4 3.22-6.44e-4 4.82-9.73e-4 14.9-0.00283 29.9 3.88e-4 44.8 0.0058 12.8 0.00449 25.6 0.00367 38.4-9.19e-4 14.9-0.00536 29.9-0.00746 44.8-0.00439 1.59 3.18e-4 3.19 6.33e-4 4.78 9.43e-4 0.783 1.54e-4 1.57 3.09e-4 2.37 4.68e-4 5.49 8.6e-4 11-5.86e-4 16.5-0.00295 6.68-0.00281 13.4-0.00203 20 0.00328 3.4 0.00262 6.8 0.00313 10.2 3.51e-4 3.69-0.00274 7.39 7.06e-4 11.1 0.00568 1.59-0.00335 1.59-0.00335 3.22-0.00676 4.96 0.0129 9.9 0.131 14.8 0.454 0.878 0.0569 1.76 0.114 2.66 0.172 2.67 0.596 3.68 1.3 5.28 3.51-0.188 2.62-0.188 2.62-1 5-2.85 1.43-5.28 1.14-8.48 1.16-1.01 0.00741-1.01 0.00741-2.04 0.015-2.28 0.0154-4.55 0.0238-6.83 0.0321-1.64 0.00958-3.27 0.0196-4.91 0.03-4.49 0.0272-8.97 0.0482-13.5 0.068-4.77 0.0221-9.55 0.0497-14.3 0.0765-10.3 0.0567-20.6 0.106-30.9 0.153-6.37 0.0294-12.7 0.0605-19.1 0.0918-28.1 0.138-56.1 0.258-84.2 0.365-2.66 0.0102-5.32 0.0205-7.98 0.0309-18.5 0.0718-36.9 0.131-55.4 0.156-4.75 0.0065-9.49 0.0173-14.2 0.032-21.1 0.0622-42.1 0.0237-63.2-1.16-0.776-0.0432-1.55-0.0864-2.35-0.131-12.4-0.716-12.4-0.716-13.6-1.92-0.188-2.44-0.188-2.44 0-5 2.74-2.74 4.33-2.31 8.18-2.41 0.657-0.019 1.31-0.0381 1.99-0.0577 2.27-0.0612 4.54-0.106 6.81-0.15 0.814-0.0185 1.63-0.0369 2.47-0.056 26.6-0.6 53.3-0.474 79.9-0.463z" fill="#000204"/>
<path transform="translate(548 557)" d="m0 0c0.994-0.00261 1.99-0.00522 3.01-0.0079 1.63 0.00335 1.63 0.00335 3.29 0.00676 1.16-0.00156 2.32-0.00312 3.51-0.00473 3.21-0.0033 6.42-0.00211 9.63 9.86e-4 3.46 0.00226 6.93-0.00123 10.4-0.00398 6.78-0.00445 13.6-0.00348 20.4-5.87e-4 5.52 0.00226 11 0.00256 16.5 0.00148 1.18-2.3e-4 1.18-2.3e-4 2.38-4.64e-4 1.59-3.2e-4 3.19-6.44e-4 4.78-9.73e-4 15-0.00285 29.9 4.28e-4 44.9 0.0058 12.8 0.00446 25.7 0.00369 38.5-9.19e-4 14.9-0.00536 29.8-0.00746 44.7-0.00439 1.59 3.19e-4 3.18 6.33e-4 4.77 9.43e-4 1.17 2.31e-4 1.17 2.31e-4 2.37 4.68e-4 5.5 8.62e-4 11-5.92e-4 16.5-0.00295 6.71-0.00281 13.4-0.00204 20.1 0.00328 3.42 0.00262 6.85 0.00367 10.3 3.51e-4 3.72-0.00274 7.43 6.99e-4 11.1 0.00568 1.61-0.00335 1.61-0.00335 3.26-0.00676 5.93 0.0154 11.7 0.111 17.6 1.13 2 3 2 3 1.69 5.62-0.688 2.38-0.688 2.38-1.69 3.38-2.45 0.249-4.88 0.425-7.34 0.552-0.795 0.0421-1.59 0.0841-2.41 0.127-11.9 0.564-23.9 0.476-35.8 0.481-2.74 0.00411-5.49 0.00964-8.23 0.015-7.4 0.0135-14.8 0.0196-22.2 0.024-4.62 0.00278-9.25 0.00702-13.9 0.0115-12.8 0.0122-25.7 0.0225-38.5 0.0259-1.23 3.29e-4 -1.23 3.29e-4 -2.48 6.65e-4 -0.819 2.18e-4 -1.64 4.37e-4 -2.48 6.61e-4 -1.66 4.43e-4 -3.32 8.9e-4 -4.98 0.00134-0.823 2.21e-4 -1.65 4.43e-4 -2.49 6.71e-4 -13.4 0.00396-26.8 0.0215-40.1 0.0447-13.8 0.0237-27.5 0.0362-41.3 0.0373-7.72 9.16e-4 -15.4 0.00666-23.2 0.0248-6.56 0.0154-13.1 0.0205-19.7 0.0123-3.34-0.00391-6.69-0.00132-10 0.0111-3.62 0.0126-7.25 0.00689-10.9-0.00358-1.59 0.0121-1.59 0.0121-3.21 0.0244-8.78-0.0596-8.78-0.0596-12.9-3.39 0.312-2.38 0.312-2.38 1-5 4.26-2.84 8-3.12 13-3.13z" fill="#000204"/>
<path transform="translate(697 443)" d="m0 0c1.55-0.00875 1.55-0.00875 3.13-0.0177 1.71 0.00567 1.71 0.00567 3.46 0.0115 1.21-0.00383 2.41-0.00765 3.66-0.0116 3.36-0.00856 6.72-0.00809 10.1-0.00382 3.62 0.00246 7.24-0.00654 10.9-0.014 7.1-0.0128 14.2-0.0145 21.3-0.0122 5.77 0.00178 11.5 3.95e-5 17.3-0.00422 1.23-8.93e-4 1.23-8.93e-4 2.48-0.0018 1.67-0.00121 3.33-0.00243 5-0.00364 15.6-0.0109 31.3-0.00871 46.9-0.00262 14.3 0.00517 28.6-0.00608 42.9-0.0251 14.7-0.0194 29.4-0.0276 44-0.0239 8.25 0.00191 16.5-6e-4 24.7-0.0147 7.02-0.0119 14-0.0133 21.1-0.00121 3.58 0.0059 7.17 0.00695 10.7-5e-3 3.88-0.0128 7.76-0.00242 11.6 0.0103 1.14-0.00737 2.27-0.0147 3.44-0.0223 1.04 0.00721 2.08 0.0144 3.15 0.0218 0.896-5.5e-5 1.79-1.1e-4 2.72-1.67e-4 3.1 0.461 4.99 1.55 7.52 3.37 0.812 2.19 0.812 2.19 1 4-2.21 2.47-4.08 3.86-7.4 4.38-3.13 0.135-6.24 0.147-9.38 0.118-1.21 0.00483-2.41 0.00966-3.65 0.0146-3.34 0.00932-6.69 6.97e-4 -10-0.0155-3.61-0.0132-7.22-0.00326-10.8 0.00376-7.07 0.0101-14.1-0.0012-21.2-0.0197-8.23-0.0208-16.5-0.0206-24.7-0.0197-14.7 1e-3 -29.4-0.0173-44-0.0464-14.2-0.0282-28.5-0.0423-42.7-0.041-0.878 7.99e-5 -1.76 1.6e-4 -2.66 2.42e-4 -1.31 1.21e-4 -1.31 1.21e-4 -2.65 2.45e-4 -16.2 0.00138-32.4-0.0104-48.6-0.0283-5.74-0.00604-11.5-0.00816-17.2-0.00906-6.99-0.00136-14-0.0103-21-0.0287-3.57-0.00924-7.13-0.0153-10.7-0.0128-3.86 0.00259-7.73-0.0103-11.6-0.0248-1.7 0.00465-1.7 0.00465-3.43 0.00939-1.03-0.00645-2.06-0.0129-3.13-0.0195-0.892-0.00141-1.78-0.00282-2.7-0.00427-2.55-0.27-4.19-0.969-6.38-2.25-0.125-3.38-0.125-3.38 0-7 2.53-2.53 3.36-2.25 6.85-2.25z" fill="#000204"/>
<path transform="translate(640 1014)" d="m0 0c6.49 0.00259 13 1.7e-4 19.5-0.00139 11.5-0.00211 23.1 0.00112 34.6 0.00626 10.4 0.0045 20.9 0.00365 31.3-9.19e-4 12.2-0.00536 24.4-0.00734 36.7-0.00439 6.43 0.00155 12.9 0.00178 19.3-0.00154 6.01-0.00289 12-8.83e-4 18 0.00489 2.2 0.00132 4.4 9.47e-4 6.6-0.00126 3.01-0.00274 6.01 7.05e-4 9.02 0.00568 0.865-0.00223 1.73-0.00446 2.62-0.00676 4.04 0.0129 8.07 0.131 12.1 0.45 1.08 0.0842 1.08 0.0842 2.17 0.17 1.88 0.513 1.88 0.513 4.44 3.58 0.474 0.969 0.949 1.94 1.44 2.94-5.29 4.41-9.46 4.57-16.2 4.49-1.03 0.00412-2.05 0.00825-3.11 0.0125-3.44 0.00893-6.87-0.0107-10.3-0.0303-2.46 5.09e-4 -4.93 0.00276-7.39 0.00664-6.01 0.00486-12-0.00878-18-0.0307-7.03-0.0248-14.1-0.0276-21.1-0.0294-12.6-0.00388-25.2-0.0263-37.7-0.0598-12.1-0.0322-24.3-0.0536-36.4-0.0615-0.743-4.85e-4 -1.49-9.71e-4 -2.25-0.00147-2.99-0.00193-5.98-0.00384-8.96-0.00572-12.3-0.00807-24.7-0.0253-37-0.0436-2.79-0.00411-5.57-0.00783-8.36-0.0112-18.4-0.0226-36.8-0.0824-55.1-0.233-0.999-0.00735-2-0.0147-3.03-0.0223-5.35-0.0409-10.7-0.102-16-0.202-1.52-0.0265-3.05-0.0466-4.57-0.0598-2.03-0.0194-4.06-0.0662-6.08-0.115-1.1-0.0194-2.21-0.0389-3.35-0.0589-3.57-0.66-5.3-2.1-7.93-4.54 3.35-3.68 5.76-4.9 10.8-5.32 1.57-0.041 3.13-0.0711 4.7-0.0927 0.861-0.019 1.72-0.0381 2.61-0.0577 2.88-0.0602 5.77-0.105 8.65-0.15 2.07-0.0378 4.13-0.0757 6.2-0.114 24.1-0.418 48.2-0.416 72.3-0.404z" fill="#000204"/>
<path transform="translate(540 460)" d="m0 0c1.17-0.00322 2.33-0.00645 3.53-0.00977 1.94 0.00232 1.94 0.00232 3.93 0.00469 1.38-0.00187 2.76-0.00417 4.14-0.00687 3.81-0.00615 7.61-0.00598 11.4-0.00481 4.1 2.03e-4 8.2-0.00531 12.3-0.0101 8.04-0.00832 16.1-0.0111 24.1-0.0116 6.53-4.74e-4 13.1-0.00253 19.6-0.0057 18.5-0.00881 37-0.0134 55.5-0.0127 0.999 4e-5 2 7.99e-5 3.03 1.21e-4 1.5 6.13e-5 1.5 6.13e-5 3.03 1.24e-4 16.2 4.06e-4 32.4-0.00916 48.6-0.0233 16.6-0.0144 33.2-0.0213 49.9-0.0204 9.34 3.32e-4 18.7-0.00243 28-0.0132 7.95-0.00909 15.9-0.0113 23.8-0.00449 4.06 0.00327 8.11 0.0033 12.2-0.00535 3.71-0.00784 7.43-0.00646 11.1 0.00228 1.98 0.00227 3.96-0.00531 5.94-0.0132 1.77 0.0069 1.77 0.0069 3.57 0.0139 1.01-2.17e-4 2.03-4.35e-4 3.08-6.59e-4 3.21 0.277 5.88 1.12 8.89 2.25-0.567 3.29-1.28 5.01-4 7-3.08 0.388-3.08 0.388-6.96 0.405-0.714 0.00735-1.43 0.0147-2.16 0.0223-2.41 0.0211-4.81 0.0207-7.22 0.0205-1.73 0.0106-3.46 0.0225-5.19 0.0356-4.75 0.032-9.5 0.0452-14.2 0.055-5.07 0.0135-10.1 0.0436-15.2 0.0714-9.81 0.0508-19.6 0.0844-29.4 0.111-7.9 0.0215-15.8 0.0484-23.7 0.0787-56 0.212-112 0.337-168 0.0443-5.14-0.0263-10.3-0.0434-15.4-0.057-6.81-0.0185-13.6-0.059-20.4-0.116-2.45-0.0177-4.91-0.0288-7.36-0.0329-3.29-0.00696-6.59-0.0384-9.88-0.0767-0.956 0.00346-1.91 0.00693-2.9 0.0105-6.35-0.112-6.35-0.112-9.62-2.47-1.37-2.1-1.37-2.1-1.18-4.29 1.62-3.61 3.37-2.94 7.15-2.94z" fill="#000204"/>
<path transform="translate(549 525)" d="m0 0c1.15-0.00645 2.31-0.0129 3.5-0.0195 1.26 0.0031 2.53 0.00619 3.83 0.00939 1.36-0.00374 2.72-0.00834 4.08-0.0137 3.73-0.0122 7.47-0.012 11.2-0.00961 4.03 4.08e-4 8.05-0.0106 12.1-0.0201 7.89-0.0166 15.8-0.0221 23.7-0.0232 6.41-9.5e-4 12.8-0.00506 19.2-0.0114 18.2-0.0176 36.3-0.0268 54.5-0.0253 0.979 7.99e-5 1.96 1.6e-4 2.97 2.42e-4 0.98 8.18e-5 1.96 1.64e-4 2.97 2.48e-4 15.9 8.14e-4 31.8-0.0183 47.7-0.0465 16.3-0.0287 32.6-0.0425 49-0.0408 9.17 6.65e-4 18.3-0.00488 27.5-0.0264 7.8-0.0182 15.6-0.0226 23.4-0.00898 3.98 0.00655 7.96 0.00656 11.9-0.0107 3.64-0.0156 7.28-0.013 10.9 0.00457 1.95 0.00456 3.9-0.0107 5.85-0.0265 1.72 0.0138 1.72 0.0138 3.48 0.0279 1.49-6.52e-4 1.49-6.52e-4 3.02-0.00132 2.48 0.499 2.48 0.499 4.33 2.39 1.14 2.11 1.14 2.11 0.957 4.29-0.812 1.81-0.812 1.81-2.81 2.81-1.83 0.108-3.65 0.151-5.48 0.165-1.17 0.0112-2.34 0.0225-3.55 0.0341-1.3 0.00732-2.6 0.0146-3.94 0.0222-1.38 0.0112-2.77 0.0228-4.15 0.0348-3.82 0.0315-7.63 0.0565-11.4 0.0801-3.27 0.0208-6.53 0.0449-9.8 0.0689-10.8 0.0784-21.5 0.143-32.3 0.204-2.8 0.016-5.59 0.0325-8.39 0.0491-57.1 0.338-114 0.422-171 0.131-6.32-0.0317-12.6-0.0562-19-0.0779-7.7-0.0268-15.4-0.0651-23.1-0.118-3.92-0.027-7.85-0.0497-11.8-0.0602-3.59-0.00988-7.18-0.0337-10.8-0.0688-1.91-0.0152-3.82-0.0159-5.74-0.0161-10.3-0.127-10.3-0.127-15.2-3.45 0.998-2.72 1.59-3.79 4.22-5.12 3-0.955 5.38-1.14 8.52-1.14z" fill="#000204"/>
<path transform="translate(856 1030)" d="m0 0c15-0.047 30-0.0825 45-0.096 2.95-0.0029 5.9-0.00706 8.85-0.0113 18.8-0.0232 37.6 0.0628 56.4 0.46 1.77 0.0368 3.53 0.0708 5.3 0.102 2.43 0.0442 4.86 0.101 7.29 0.162 0.714 0.0112 1.43 0.0223 2.16 0.0338 3.92 0.115 7.11 0.493 10.6 2.38 1.31 2.62 1.31 2.62 2 5-5.68 3.69-11 3.42-17.6 3.39-1.18 0.00539-2.36 0.0108-3.58 0.0163-3.27 0.0118-6.54 0.0102-9.8 0.00283-3.53-0.00473-7.06 0.00778-10.6 0.018-6.91 0.0172-13.8 0.018-20.7 0.0128-5.61-0.00404-11.2-0.0026-16.8 0.00275-0.799 7.48e-4 -1.6 0.0015-2.42 0.00227-1.62 0.00153-3.25 0.00307-4.87 0.00461-15.2 0.0137-30.5 0.00829-45.7-0.00319-13.9-0.00993-27.9 0.00301-41.8 0.0269-14.3 0.0244-28.6 0.034-42.9 0.0273-8.03-0.00349-16.1-0.00125-24.1 0.0163-6.83 0.0147-13.7 0.0154-20.5-0.00207-3.49-0.00852-6.97-0.0106-10.5 0.00465-3.78 0.0132-7.56 0.00171-11.3-0.016-1.1 0.00961-2.2 0.0192-3.33 0.0291-6.36-0.0614-10.2-0.813-15.4-4.53v-3c3.54-2.75 6.24-3.38 10.7-3.4 1.13-0.0125 2.27-0.0251 3.44-0.038 1.86 0.00215 1.86 0.00215 3.75 0.00435 1.32-0.0102 2.63-0.0204 3.99-0.0309 3.63-0.0277 7.27-0.0369 10.9-0.0428 3.87-0.00952 7.75-0.036 11.6-0.0603 7.49-0.0444 15-0.0728 22.5-0.0955 6.04-0.0187 12.1-0.0439 18.1-0.0736 1.28-0.00631 1.28-0.00631 2.59-0.0127 1.73-0.00853 3.46-0.0171 5.19-0.0256 18.8-0.0918 37.5-0.155 56.3-0.207 5.12-0.0141 10.2-0.0293 15.3-0.0455z" fill="#000204"/>
<path transform="translate(736 426)" d="m0 0c3.63-0.00248 7.27-0.00643 10.9-0.0106 21.3-0.0211 42.5-0.0324 63.8 0.46 1.59 0.0367 3.17 0.0707 4.76 0.102 2.14 0.0439 4.29 0.101 6.43 0.162 1.19 0.0306 2.37 0.0613 3.6 0.0928 3.34 0.326 6.12 1.13 9.25 2.32 0.33 1.65 0.66 3.3 1 5-9.49 5.32-23.7 3.14-34.3 3.13-1.94 0.00136-3.89 0.00314-5.83 0.00531-5.27 0.00455-10.5 0.00279-15.8-3.79e-4 -5.6-0.00256-11.2-1.75e-4 -16.8 0.00139-9.47 0.00182-18.9-5.73e-4 -28.4-0.00534-9.57-0.00476-19.1-0.00488-28.7 0-30.4 0.0149-60.7-0.00908-91.1-0.119-2.98-0.0107-5.97-0.0207-8.95-0.0306-10.6-0.0368-21.2-0.0973-31.8-0.197-3.09-0.0288-6.19-0.0488-9.28-0.0608-4.16-0.0167-8.33-0.0648-12.5-0.117-1.8-0.00126-1.8-0.00126-3.64-0.00254-6.24-0.11-10.1-0.4-14.9-4.6 6.35-5.37 13-5.3 21-5.32 1.1-0.01 2.21-0.0201 3.35-0.0304 3.69-0.0311 7.39-0.048 11.1-0.0648 2.63-0.0189 5.27-0.0386 7.9-0.059 6.39-0.0477 12.8-0.0843 19.2-0.117 5.19-0.0266 10.4-0.0573 15.6-0.0907 41.4-0.265 82.8-0.418 124-0.442z" fill="#000204"/>
<path transform="translate(701 574)" d="m0 0c1.03-0.00645 2.07-0.0129 3.13-0.0195 1.7 0.00465 1.7 0.00465 3.43 0.00939 1.21-0.00453 2.41-0.00906 3.65-0.0137 3.35-0.0105 6.69-0.012 10-0.00961 3.61 4.08e-4 7.22-0.0106 10.8-0.0201 7.07-0.0166 14.1-0.0221 21.2-0.0232 5.75-9.5e-4 11.5-0.00506 17.2-0.0114 16.3-0.0176 32.6-0.0268 48.8-0.0253 1.32 1.2e-4 1.32 1.2e-4 2.66 2.42e-4 0.879 8.18e-5 1.76 1.64e-4 2.66 2.48e-4 14.3 8.13e-4 28.5-0.0183 42.8-0.0465 14.6-0.0287 29.3-0.0425 43.9-0.0408 8.22 6.65e-4 16.4-0.00487 24.6-0.0264 6.99-0.0182 14-0.0226 21-0.00898 3.57 0.00655 7.14 0.00658 10.7-0.0107 3.87-0.0185 7.73-0.00622 11.6 0.00926 1.13-0.0103 2.27-0.0206 3.43-0.0312 1.03 0.0092 2.07 0.0184 3.13 0.0279 0.892-4.35e-4 1.78-8.69e-4 2.7-0.00132 3.12 0.654 4.35 2.12 6.38 4.5-1.15 2.47-2.05 4.05-4 6-2.14 0.252-2.14 0.252-4.85 0.254-1.03 0.00583-2.06 0.0117-3.13 0.0177-1.71-0.00567-1.71-0.00567-3.46-0.0115-1.21 0.00383-2.41 0.00765-3.66 0.0116-3.36 0.00856-6.72 0.00809-10.1 0.00382-3.62-0.00246-7.24 0.00654-10.9 0.014-7.1 0.0128-14.2 0.0145-21.3 0.0122-5.77-0.00178-11.5-3.95e-5 -17.3 0.00422-0.82 5.95e-4 -1.64 0.00119-2.48 0.0018-1.67 0.00121-3.33 0.00243-5 0.00364-15.6 0.0109-31.3 0.00871-46.9 0.00262-14.3-0.00517-28.6 0.00608-42.9 0.0251-14.7 0.0194-29.4 0.0276-44 0.0239-8.25-0.00191-16.5 6e-4 -24.7 0.0147-7.02 0.0119-14 0.0133-21.1 0.00121-3.58-0.0059-7.17-0.00695-10.7 5e-3 -3.88 0.0128-7.76 0.00242-11.6-0.0103-1.14 0.00737-2.27 0.0147-3.44 0.0223-1.04-0.00721-2.08-0.0144-3.15-0.0218-0.896 5.5e-5 -1.79 1.1e-4 -2.72 1.67e-4 -3.05-0.455-4.98-1.65-7.52-3.37 1.47-4.65 1.47-4.65 3.76-6.15 2.59-0.986 4.56-1.1 7.33-1.11z" fill="#000204"/>
<path transform="translate(544 1148)" d="m0 0c1.02-0.00522 2.05-0.0104 3.1-0.0158 1.12 0.00446 2.24 0.00892 3.39 0.0135 1.19-0.00312 2.39-0.00624 3.62-0.00945 3.31-0.0066 6.62-0.00422 9.92 0.00197 3.57 0.00452 7.14-0.00246 10.7-0.00796 6.99-0.0089 14-0.00697 21-0.00117 5.68 0.00452 11.4 0.00513 17 0.00295 0.808-3.06e-4 1.62-6.13e-4 2.45-9.29e-4 1.64-6.39e-4 3.28-0.00129 4.93-0.00195 15.4-0.0057 30.8 8.56e-4 46.2 0.0116 13.2 0.00894 26.4 0.00738 39.6-0.00184 15.3-0.0107 30.7-0.0149 46-0.00878 1.64 6.37e-4 3.27 0.00127 4.91 0.00189 1.21 4.63e-4 1.21 4.63e-4 2.44 9.35e-4 5.67 0.00173 11.3-0.00119 17-0.00589 6.91-0.00561 13.8-0.0041 20.7 0.00656 3.53 0.00526 7.06 0.00731 10.6 7.02e-4 3.82-0.00705 7.65 0.00136 11.5 0.0114 1.12-0.00446 2.24-0.00892 3.39-0.0135 1.02 0.00522 2.05 0.0104 3.1 0.0158 0.882 3.25e-4 1.76 6.49e-4 2.67 9.84e-4 2.84 0.286 4.95 0.959 7.49 2.25 1.31 2.63 1.31 2.63 2 5-3.35 2.24-4.51 2.27-8.43 2.32-1.7 0.0298-1.7 0.0298-3.44 0.0602-1.25 0.0116-2.5 0.0231-3.78 0.035-1.32 0.0195-2.63 0.0389-3.99 0.059-3.66 0.0529-7.31 0.0922-11 0.128-2.35 0.024-4.71 0.0511-7.06 0.0793-39.8 0.473-79.6 0.48-119 0.319-1.37-0.00538-2.73-0.0108-4.1-0.0161-19.8-0.0782-39.7-0.173-59.5-0.289-0.81-0.00473-1.62-0.00945-2.46-0.0143-0.809-0.00473-1.62-0.00946-2.45-0.0143-5.71-0.033-11.4-0.0612-17.1-0.0876-7.02-0.0326-14-0.0724-21.1-0.121-3.64-0.0252-7.28-0.0471-10.9-0.0608-4-0.0152-7.99-0.0457-12-0.0778-1.17-0.00216-2.35-0.00432-3.56-0.00654-5.31-0.0548-9.87-0.132-14.8-2.31 0.188-2.38 0.188-2.38 1-5 3.45-1.78 6.32-2.25 10.2-2.25z" fill="#000204"/>
<path transform="translate(703 1165)" d="m0 0c1.55-0.00875 1.55-0.00875 3.13-0.0177 1.13 0.00378 2.27 0.00756 3.44 0.0115 1.81-0.00574 1.81-0.00574 3.65-0.0116 3.35-0.00854 6.7-0.00809 10-0.00382 3.61 0.00246 7.22-0.00654 10.8-0.014 7.07-0.0128 14.1-0.0145 21.2-0.0122 5.75 0.00178 11.5 3.71e-5 17.2-0.00422 1.23-8.93e-4 1.23-8.93e-4 2.48-0.0018 1.66-0.00121 3.32-0.00243 4.98-0.00364 15.6-0.0109 31.1-0.00871 46.7-0.00262 14.3 0.00517 28.5-0.00609 42.8-0.0251 14.6-0.0194 29.3-0.0276 43.9-0.0239 8.22 0.00192 16.4-6.1e-4 24.7-0.0147 7-0.0119 14-0.0134 21-0.00121 3.57 0.00591 7.14 0.00693 10.7-5e-3 3.87-0.0128 7.73-0.00244 11.6 0.0103 1.14-0.00737 2.27-0.0147 3.44-0.0223 1.03 0.00721 2.06 0.0144 3.12 0.0218 0.893-5.5e-5 1.79-1.1e-4 2.71-1.67e-4 2.72 0.452 3.63 1.18 5.26 3.37 0.0625 2.06 0.0625 2.06-1 4-5.68 2.69-11.6 2.28-17.7 2.26-1.78 0.00574-1.78 0.00574-3.6 0.0116-3.29 0.00853-6.59 0.0081-9.88 0.00382-3.55-0.00247-7.11 0.00655-10.7 0.014-6.96 0.0127-13.9 0.0145-20.9 0.0122-5.66-0.00178-11.3-3.35e-5 -17 0.00422-1.21 8.93e-4 -1.21 8.93e-4 -2.44 0.0018-1.64 0.00121-3.27 0.00243-4.91 0.00364-15.3 0.0109-30.7 0.00871-46 0.00262-14-0.00517-28.1 0.00609-42.1 0.0251-14.4 0.0194-28.8 0.0276-43.2 0.0239-8.09-0.00191-16.2 5.89e-4 -24.3 0.0147-6.88 0.0119-13.8 0.0133-20.7 0.00121-3.51-0.0059-7.03-0.00697-10.5 5e-3 -3.81 0.0128-7.61 0.00241-11.4-0.0103-1.67 0.0111-1.67 0.0111-3.37 0.0223-5.63-0.0397-9.6-0.292-14.4-3.4 0.948-2.37 1.58-3.73 3.76-5.12 2.6-1.02 4.54-1.13 7.33-1.14z" fill="#000204"/>
<path transform="translate(697 998)" d="m0 0c1.37-0.0136 1.37-0.0136 2.76-0.0274 1 0.00533 2.01 0.0107 3.04 0.0161 1.06-0.00609 2.13-0.0122 3.23-0.0185 3.59-0.0167 7.17-0.0118 10.8-0.00705 2.56-0.00734 5.13-0.0159 7.69-0.0257 6.25-0.02 12.5-0.0256 18.8-0.0238 5.08 0.00131 10.2-0.00249 15.2-0.00993 1.46-0.0021 2.92-0.0042 4.39-0.00629 1.09-0.00157 1.09-0.00157 2.21-0.00316 13.8-0.0189 27.5-0.0178 41.3-0.011 12.6 0.00558 25.2-0.0152 37.8-0.0484 12.9-0.0337 25.9-0.0489 38.8-0.0443 7.26 0.00225 14.5-0.00302 21.8-0.0279 6.83-0.0232 13.7-0.0204 20.5-7.25e-5 2.51 0.00342 5.02-0.00173 7.53-0.016 3.42-0.0181 6.84-0.00552 10.3 0.0149 0.999-0.0125 2-0.025 3.03-0.0379 7.48 0.0963 7.48 0.0963 10.6 3.2 0.913 1.22 0.913 1.22 1.84 2.46-1.37 3.16-1.99 3.99-5 6-2.05 0.243-2.05 0.243-4.46 0.233-1.38 0.00167-1.38 0.00167-2.78 0.00338-1.01-0.00903-2.02-0.0181-3.06-0.0274-1.07-0.00167-2.14-0.00334-3.25-0.00506-3.61-0.00811-7.21-0.0307-10.8-0.0531-2.58-0.00878-5.16-0.0167-7.74-0.0238-6.29-0.019-12.6-0.0487-18.9-0.082-7.32-0.0384-14.6-0.0663-21.9-0.0938-13.1-0.0494-26.1-0.108-39.2-0.173-12.7-0.0626-25.3-0.118-38-0.166-0.781-0.00295-1.56-0.00589-2.37-0.00893-1.17-0.00441-1.17-0.00441-2.36-0.00891-14.4-0.0545-28.8-0.115-43.2-0.18-5.1-0.0225-10.2-0.0431-15.3-0.0631-6.86-0.027-13.7-0.0596-20.6-0.096-2.53-0.0126-5.05-0.0235-7.58-0.0326-3.43-0.0127-6.87-0.0314-10.3-0.0518-1.52-0.00351-1.52-0.00351-3.07-0.0071-1.37-0.0101-1.37-0.0101-2.77-0.0203-0.794-0.00374-1.59-0.00748-2.4-0.0113-1.92-0.133-1.92-0.133-3.92-1.13-0.367-5.5-0.367-5.5 1.23-7.68 2.23-1.67 3.43-1.7 6.2-1.71z" fill="#000204"/>
<path transform="translate(553 590)" d="m0 0c1.02-0.00468 2.04-0.00936 3.1-0.0142 3.42-0.012 6.84-0.00249 10.3 0.00695 2.45-0.00407 4.91-0.00941 7.36-0.0159 5.97-0.0123 11.9-0.0105 17.9-0.00176 4.85 0.00678 9.71 0.00769 14.6 0.00443 1.04-6.9e-4 1.04-6.9e-4 2.09-0.00139 1.4-9.59e-4 2.81-0.00193 4.21-0.00292 13.2-0.00855 26.3 0.00128 39.5 0.0174 11.3 0.0134 22.6 0.0111 33.9-0.00276 13.1-0.0161 26.2-0.0224 39.4-0.0132 1.4 9.56e-4 2.8 0.0019 4.2 0.00283 0.688 4.63e-4 1.38 9.26e-4 2.09 0.0014 4.85 0.00259 9.7-0.00178 14.5-0.00884 6.53-0.0093 13.1-0.00267 19.6 0.0147 2.4 0.00397 4.79 0.00282 7.19-0.00379 3.27-0.00818 6.54 0.00207 9.81 0.017 0.951-0.00669 1.9-0.0134 2.88-0.0203 5.16 0.046 8.84 0.461 13.3 3.4 1 2.06 1 2.06 1 4-4.06 4.06-10.5 3.16-16 3.21-1.18 0.0148-1.18 0.0148-2.39 0.03-2.64 0.0317-5.27 0.0566-7.91 0.0811-1.9 0.0208-3.8 0.0419-5.71 0.0632-5.19 0.0565-10.4 0.106-15.6 0.153-3.27 0.0299-6.54 0.0613-9.81 0.093-35.4 0.339-70.8 0.482-106 0.497-3.6 0.00204-7.2 0.00579-10.8 0.00991-21.8 0.0216-43.6 0.024-65.5-0.405-1.68-0.0317-3.36-0.059-5.04-0.0813-2.28-0.0321-4.56-0.0829-6.83-0.139-1.9-0.0381-1.9-0.0381-3.84-0.0769-3.71-0.466-6.21-1.57-9.42-3.43 0.989-2.87 1.89-3.93 4.45-5.61 4.69-1.83 8.73-1.8 13.7-1.77z" fill="#000204"/>
<path transform="translate(555 982)" d="m0 0c1.02-0.00468 2.05-0.00936 3.1-0.0142 3.42-0.0119 6.84-0.0025 10.3 0.00695 2.46-0.00407 4.91-0.00941 7.37-0.0159 5.97-0.0122 11.9-0.0105 17.9-0.00176 4.85 0.00678 9.7 0.00769 14.6 0.00443 0.691-4.6e-4 1.38-9.19e-4 2.09-0.00139 1.4-9.59e-4 2.81-0.00193 4.21-0.00292 13.2-0.00855 26.3 0.00127 39.5 0.0174 11.3 0.0134 22.6 0.0111 33.9-0.00276 13.1-0.0161 26.2-0.0224 39.3-0.0132 1.4 9.56e-4 2.8 0.0019 4.19 0.00283 0.688 4.63e-4 1.38 9.26e-4 2.08 0.0014 4.85 0.00259 9.69-0.00178 14.5-0.00884 6.52-0.00929 13-0.00268 19.6 0.0147 2.4 0.00397 4.79 0.00282 7.19-0.00379 3.26-0.00817 6.53 0.00205 9.79 0.017 1.43-0.01 1.43-0.01 2.89-0.0203 4.81 0.043 8.33 0.117 12.2 3.4 0.33 0.99 0.66 1.98 1 3-5.07 4.11-8.74 4.58-15.2 4.53-0.913 0.00821-1.83 0.0164-2.77 0.0249-3.06 0.0226-6.11 0.0169-9.17 0.0112-2.19 0.0104-4.39 0.0225-6.58 0.0362-5.96 0.0322-11.9 0.0397-17.9 0.0425-6.26 0.00686-12.5 0.0354-18.8 0.0614-10.5 0.0406-21.1 0.0665-31.6 0.0821-10.8 0.016-21.6 0.0431-32.4 0.084-0.992 0.00375-0.992 0.00375-2 0.00758-2 0.00757-3.99 0.0151-5.99 0.0227-11.6 0.0441-23.3 0.0784-34.9 0.111-3.7 0.0106-7.4 0.0222-11.1 0.0339-44.1 0.132-44.1 0.132-61.1-0.357-1.04-0.0224-2.08-0.0448-3.15-0.0678-5.22-0.199-8.92-0.78-13.5-3.62 0.5-1.81 0.5-1.81 2-4 6.28-2.94 11.6-3.43 18.4-3.38z" fill="#000204"/>
<path transform="translate(694 411)" d="m0 0c0.799 4.35e-4 1.6 8.69e-4 2.42 0.00132 0.924-0.0092 1.85-0.0184 2.8-0.0279 1.02 0.0103 2.03 0.0206 3.08 0.0312 1.62-0.00724 1.62-0.00724 3.27-0.0146 3.63-0.0113 7.26 0.00608 10.9 0.0233 2.6-0.00214 5.19-0.00602 7.79-0.0115 6.33-0.0101 12.7 0.00121 19 0.0197 7.37 0.0207 14.7 0.0206 22.1 0.0197 13.1-1e-3 26.3 0.0173 39.4 0.0464 12.8 0.0282 25.5 0.0423 38.3 0.041 0.786-7.99e-5 1.57-1.6e-4 2.38-2.42e-4 0.785-8.07e-5 1.57-1.61e-4 2.38-2.45e-4 14.5-0.00138 29 0.0104 43.6 0.0283 5.14 0.00604 10.3 0.00816 15.4 0.00906 6.91 0.00151 13.8 0.0142 20.7 0.0343 2.54 0.00586 5.09 0.0083 7.63 0.00714 3.46-9.76e-4 6.92 0.0103 10.4 0.0248 1.52-0.00465 1.52-0.00465 3.08-0.00939 0.924 0.00645 1.85 0.0129 2.8 0.0195 0.799 0.00141 1.6 0.00282 2.42 0.00427 2.06 0.253 2.06 0.253 5.06 2.25 0.688 2.62 0.688 2.62 1 5-8.27 3.65-17.6 3.15-26.5 3.14-0.995 0.00297-1.99 0.00594-3.02 9e-3 -3.3 0.0086-6.61 0.0102-9.91 0.0117-2.38 0.00463-4.76 0.00966-7.14 0.015-7.11 0.0144-14.2 0.0205-21.3 0.0254-3.36 0.00259-6.72 0.00638-10.1 0.0101-11.2 0.0122-22.3 0.0225-33.5 0.0259-1.07 3.29e-4 -1.07 3.29e-4 -2.16 6.65e-4 -1.07 3.27e-4 -1.07 3.27e-4 -2.17 6.61e-4 -1.45 4.43e-4 -2.9 8.9e-4 -4.34 0.00134-1.08 3.32e-4 -1.08 3.32e-4 -2.18 6.71e-4 -11.6 0.00395-23.3 0.0214-34.9 0.0447-12 0.0237-24 0.0362-35.9 0.0373-6.72 9.15e-4 -13.4 0.00663-20.2 0.0248-6.32 0.0165-12.6 0.0186-18.9 0.00986-2.32-7.71e-4 -4.63 0.00357-6.95 0.0135-3.16 0.0127-6.33 0.00684-9.49-0.00358-0.912 0.00806-1.82 0.0161-2.76 0.0244-6.31-0.0485-13.4-0.548-18.2-5-0.412-0.461-0.823-0.921-1.25-1.4 2.39-3.85 2.39-3.85 5.06-4.5z" fill="#000204"/>
<path transform="translate(739 606)" d="m0 0c2.16-0.00136 4.32-0.00314 6.48-0.00531 5.8-0.00452 11.6-0.00281 17.4 3.79e-4 6.1 0.00255 12.2 1.78e-4 18.3-0.00139 10.2-0.00181 20.5 5.61e-4 30.7 0.00534 11.8 0.00545 23.6 0.00367 35.4-0.00183 10.2-0.00455 20.4-0.00517 30.5-0.00256 6.06 0.00155 12.1 0.00178 18.2-0.00154 5.69-0.0029 11.4-8.61e-4 17.1 0.00489 2.08 0.00131 4.16 9.55e-4 6.24-0.00126 30-0.029 30-0.029 36.4 3.13 0.812 2.12 0.812 2.12 1 4-4.59 3.49-8.53 3.47-14.1 3.51-0.898 0.0177-1.8 0.0353-2.72 0.0535-2.96 0.0541-5.92 0.0869-8.89 0.119-2.09 0.0324-4.17 0.0658-6.26 0.1-6.35 0.0978-12.7 0.164-19.1 0.22-0.926 0.00836-1.85 0.0167-2.8 0.0253-12.2 0.105-24.4 0.123-36.6 0.104-2.85-0.00427-5.71-0.00719-8.56-0.00988-13.8-0.0146-27.6-0.0548-41.5-0.106-3.71-0.0136-7.43-0.0264-11.1-0.0392-15.9-0.0561-31.7-0.135-47.6-0.238-5.19-0.0334-10.4-0.0602-15.6-0.0814-6.13-0.0256-12.3-0.0658-18.4-0.117-2.27-0.0167-4.54-0.0283-6.81-0.0346-3.11-0.00957-6.23-0.0375-9.34-0.07-0.908 0.00144-1.82 0.00287-2.75 0.00435-5.1-0.076-8.55-0.688-13-3.44 0.894-2.23 1.56-3.69 3.56-5.09 3.54-1.31 7.07-1.38 10.8-1.52 1.26-0.0564 1.26-0.0564 2.54-0.114 10.1-0.414 20.2-0.409 30.3-0.398z" fill="#000204"/>
<path transform="translate(816 965)" d="m0 0c3.47-0.0019 6.93-0.00508 10.4-0.00858 7.35-0.00729 14.7-0.0084 22-0.00338 2.48 0.00107 4.97 5.6e-4 7.45-0.00168 11.8-0.00883 23.5 0.0128 35.3 0.937 4.24 0.273 8.37 0.0707 12.6-0.301 5.69-0.479 10.9-0.583 16.5 0.5 2 2.56 2 2.56 3 5-7.06 7.06-17.2 6.22-26.5 6.25-2.79-9.07e-4 -5.58-0.0115-8.37-0.0225-2.02-7.33e-4 -4.04-6.7e-4 -6.06 1.22e-4 -5.48-8.45e-4 -11-0.015-16.4-0.0327-3.43-0.0104-6.86-0.0175-10.3-0.0236-15.8-0.0285-31.7-0.0878-47.5-0.158-3.85-0.0165-7.71-0.0313-11.6-0.0457-15.2-0.057-30.4-0.133-45.7-0.236-4.85-0.0327-9.71-0.059-14.6-0.0801-5.72-0.0255-11.4-0.0657-17.2-0.117-2.11-0.0167-4.21-0.0283-6.32-0.0347-2.88-0.00955-5.75-0.0374-8.63-0.07-0.838 0.00144-1.68 0.00287-2.54 0.00435-4.64-0.0752-7.55-0.532-11.4-3.44 0.312-2.38 0.312-2.38 1-5 3.04-2.03 3.67-2.26 7.1-2.32 1.28-0.0298 1.28-0.0298 2.58-0.0602 0.953-0.0116 1.91-0.0231 2.89-0.035 1.04-0.0195 2.08-0.0389 3.15-0.059 3.61-0.0624 7.23-0.108 10.8-0.152 1.27-0.0183 2.54-0.0367 3.85-0.0556 31.4-0.454 62.9-0.425 94.3-0.442z" fill="#000204"/>
<path transform="translate(539 395)" d="m0 0c0.925-0.00507 1.85-0.0101 2.8-0.0154 1.02-4.98e-4 2.05-9.96e-4 3.1-0.00151 1.08-0.00438 2.16-0.00876 3.28-0.0133 3.65-0.0134 7.3-0.0196 10.9-0.0257 2.61-0.0079 5.21-0.0162 7.82-0.0248 7.84-0.0245 15.7-0.0392 23.5-0.0521 2.21-0.00371 4.42-0.00768 6.64-0.0118 13.7-0.0252 27.5-0.0473 41.2-0.0597 3.18-0.00293 6.36-0.00589 9.54-0.00891 0.791-7.46e-4 1.58-0.00149 2.4-0.00226 12.8-0.0127 25.6-0.0459 38.5-0.0875 13.2-0.0424 26.3-0.066 39.5-0.0712 7.39-0.00342 14.8-0.0152 22.2-0.0481 6.94-0.0308 13.9-0.0364 20.8-0.0246 2.55 2.22e-4 5.11-0.00818 7.66-0.0257 3.48-0.0225 6.95-0.0145 10.4 0.00148 1.02-0.0139 2.04-0.0278 3.09-0.0421 2.54 0.029 4.84 0.0751 7.31 0.65 2.15 2.54 2.15 2.54 3 5-5.26 4.32-10.1 4.16-16.7 4.22-1.33 0.0172-1.33 0.0172-2.69 0.0348-3 0.037-6 0.0666-9 0.0956-2.17 0.0238-4.33 0.0477-6.5 0.0718-7.19 0.0769-14.4 0.14-21.6 0.202-1.84 0.0164-1.84 0.0164-3.72 0.033-44 0.388-87.9 0.386-132 0.131-5.55-0.0317-11.1-0.0562-16.6-0.0779-6.81-0.027-13.6-0.0654-20.4-0.118-3.5-0.0271-7-0.0497-10.5-0.0602-3.82-0.0118-7.64-0.0469-11.5-0.0845-1.11-1.33e-4 -2.23-2.66e-4 -3.38-4.02e-4 -5.93-0.0804-10.4-0.5-15.6-3.45-0.33-0.66-0.66-1.32-1-2 0.33-0.99 0.66-1.98 1-3 2.35-1.18 3.75-1.13 6.38-1.14z" fill="#000204"/>
<path transform="translate(619 1180)" d="m0 0c4.87 0.0026 9.73 1.66e-4 14.6-0.00139 8.16-0.0018 16.3 5.27e-4 24.5 0.00534 9.33 0.00544 18.7 0.00367 28-0.00183 8.12-0.00459 16.2-0.00515 24.4-0.00256 4.8 0.00153 9.6 0.00185 14.4-0.00154 17.8-0.0106 35.7 0.018 53.5 0.409 1.52 0.0318 3.04 0.0591 4.56 0.0813 2.08 0.0322 4.16 0.0831 6.24 0.139 1.17 0.0253 2.34 0.0507 3.54 0.0768 3.71 0.494 6.12 1.33 9.23 3.43 0.875 2.69 0.875 2.69 1 5-129 1.1-129 1.1-184 1.12-2.85 0.00159-5.7 0.00512-8.55 0.00919-19.5 0.0248-39-0.121-58.5-0.578-0.879-0.0194-1.76-0.0388-2.66-0.0588-2.46-0.0558-4.92-0.118-7.38-0.184-0.732-0.0163-1.46-0.0326-2.22-0.0495-5.03-0.147-5.03-0.147-7.26-1.26 0.188-1.88 0.188-1.88 1-4 5.51-2.99 11.8-3.13 18-3.31 0.675-0.0205 1.35-0.0409 2.05-0.062 2.24-0.0655 4.48-0.124 6.72-0.18 1.18-0.0314 1.18-0.0314 2.38-0.0635 19-0.498 37.9-0.53 56.9-0.517z" fill="#000204"/>
<path transform="translate(706 1197)" d="m0 0c1.6-0.00936 1.6-0.00936 3.23-0.0189 3.58-0.016 7.16-0.00331 10.7 0.00927 2.57-0.00542 5.13-0.0125 7.7-0.0212 6.25-0.0164 12.5-0.0139 18.7-0.00235 5.08 0.00903 10.2 0.0103 15.2 0.0059 1.08-9.19e-4 1.08-9.19e-4 2.19-0.00186 1.47-0.00128 2.94-0.00258 4.4-0.00389 13.8-0.0114 27.5 0.00171 41.3 0.0232 11.8 0.0179 23.6 0.0148 35.4-0.00368 13.7-0.0214 27.4-0.0298 41.1-0.0176 1.46 0.00127 2.92 0.00253 4.39 0.00377 1.08 9.26e-4 1.08 9.26e-4 2.18 0.00187 5.07 0.00346 10.1-0.00238 15.2-0.0118 6.82-0.0124 13.6-0.00359 20.5 0.0196 2.51 0.0053 5.02 0.00375 7.53-0.00505 3.42-0.0109 6.83 0.00272 10.2 0.0227 1-0.00892 2-0.0178 3.03-0.027 6.73 0.0768 6.73 0.0768 9.97 2.57 0.67 0.974 0.67 0.974 1.35 1.97-2.85 3.3-5.73 4.8-10.1 5.18-2.71 0.0759-5.41 0.0835-8.12 0.0711-1.04 0.00312-2.08 0.00624-3.16 0.00945-3.5 0.00799-6.99 0.00165-10.5-0.00463-2.5 0.00271-5.01 0.00627-7.51 0.0106-6.1 0.00818-12.2 0.00697-18.3 0.00117-4.96-0.00452-9.92-0.00513-14.9-0.00295-0.706 3.06e-4 -1.41 6.13e-4 -2.14 9.29e-4 -1.43 6.39e-4 -2.87 0.00129-4.3 0.00195-13.4 0.0057-26.9-8.55e-4 -40.3-0.0116-11.5-0.00894-23.1-0.00738-34.6 0.00184-13.4 0.0107-26.8 0.0149-40.2 0.00878-1.43-6.37e-4 -2.86-0.00127-4.28-0.00189-0.703-3.09e-4 -1.41-6.17e-4 -2.13-9.35e-4 -4.95-0.00173-9.9 0.00119-14.9 0.00589-6.66 0.00619-13.3 0.00179-20-0.00979-2.45-0.00265-4.9-0.00188-7.35 0.00253-3.34 0.00545-6.67-0.00137-10-0.0114-1.46 0.00669-1.46 0.00669-2.95 0.0135-8.54-0.0498-8.54-0.0498-12.3-2.27-0.66-0.99-1.32-1.98-2-3 4.66-4.97 9.1-4.56 15.5-4.51z" fill="#000204"/>
<path transform="translate(563 623)" d="m0 0c1.96-5.09e-4 3.91-0.00277 5.87-0.00664 5.29-0.0054 10.6 0.014 15.9 0.0381 5.56 0.0214 11.1 0.0207 16.7 0.0227 9.34 0.00644 18.7 0.0277 28 0.0591 11.9 0.0402 23.9 0.0577 35.8 0.0673 10.3 0.00834 20.6 0.0256 30.9 0.045 2.2 0.00404 4.4 0.00778 6.61 0.0112 6.29 0.00986 12.6 0.0245 18.9 0.0468 1.9 0.00606 3.79 0.0105 5.69 0.0132 5.78 0.00899 11.5 0.0574 17.3 0.173 0.77 0.0138 1.54 0.0276 2.33 0.0418 2.21 0.0498 4.41 0.129 6.61 0.219 1.87 0.0672 1.87 0.0672 3.77 0.136 3.78 0.695 5.52 1.99 8.28 4.6-0.33 1.32-0.66 2.64-1 4-6.08 0.759-12 1.15-18.1 1.15-1.31 0.00552-1.31 0.00552-2.64 0.0111-2.9 0.0109-5.79 0.0149-8.69 0.0187-2.09 0.00627-4.17 0.0129-6.26 0.0199-6.83 0.0209-13.7 0.0314-20.5 0.0414-2.36 0.00405-4.71 0.00817-7.07 0.0124-11.1 0.019-22.1 0.0333-33.2 0.0416-12.8 0.00979-25.5 0.0362-38.3 0.0765-9.87 0.0301-19.7 0.045-29.6 0.0483-5.89 0.00235-11.8 0.0113-17.7 0.0365-5.54 0.0233-11.1 0.0275-16.6 0.0172-2.03-4.96e-4 -4.06 0.00583-6.09 0.0196-2.78 0.0177-5.55 0.0106-8.33-0.00253-1.2 0.0165-1.2 0.0165-2.42 0.0332-5.55-0.0633-9.95-1.35-14.6-4.52-0.33-0.66-0.66-1.32-1-2 9.28-5.28 19-4.54 29.3-4.47z" fill="#000204"/>
<path transform="translate(709 378)" d="m0 0c0.868-0.00468 1.74-0.00936 2.63-0.0142 2.89-0.0119 5.78-0.00251 8.67 0.00695 2.08-0.00407 4.16-0.00941 6.24-0.0159 5.63-0.0137 11.3-0.00838 16.9 0.00114 5.9 0.0076 11.8 5.49e-4 17.7-0.00416 9.9-0.00545 19.8 0.00173 29.7 0.016 11.4 0.0163 22.9 0.011 34.3-0.00548 9.83-0.0136 19.7-0.0155 29.5-0.00768 5.87 0.00467 11.7 0.00531 17.6-0.00461 5.52-0.00867 11-0.00264 16.6 0.0147 2.02 0.00396 4.05 0.00283 6.07-0.00379 2.76-0.00821 5.53 0.0021 8.29 0.017 0.799-0.00669 1.6-0.0134 2.42-0.0203 5.17 0.0541 8.83 0.942 13.4 3.4 0.938 2.19 0.938 2.19 1 4-4.92 2.38-8.44 3.37-14 3.32-0.662-0.00117-1.32-0.00234-2-0.00354-2.18-0.00715-4.36-0.0354-6.53-0.0634-1.55-0.00817-3.1-0.0148-4.65-0.0201-4.09-0.0171-8.19-0.0512-12.3-0.0901-7.23-0.0662-14.5-0.104-21.7-0.14-0.804-0.00457-1.61-0.00914-2.43-0.0139-10.4-0.0551-20.8 0.0979-31.3 0.51-21.9 0.828-43.8 0.543-65.7 0.364-6.28-0.0501-12.6-0.0758-18.8-0.0964-4.88-0.0203-9.76-0.0582-14.6-0.101-2.32-0.0173-4.64-0.028-6.96-0.0319-3.22-0.00708-6.44-0.039-9.66-0.0769-1.42 0.00519-1.42 0.00519-2.86 0.0105-5.97-0.104-9.49-1.17-14.4-4.57v-3c5.9-2.53 10.6-3.43 17-3.38z" fill="#000204"/>
<path transform="translate(681 361)" d="m0 0c2.35 0.0138 4.71 0.0265 7.06 0.0392 10.1 0.056 20.3 0.135 30.4 0.238 3.27 0.0331 6.54 0.06 9.81 0.0814 3.83 0.0256 7.65 0.0658 11.5 0.117 1.41 0.0166 2.81 0.0283 4.22 0.0346 13.7 0.0683 13.7 0.0683 19.3 3.5 0.33 0.99 0.66 1.98 1 3-3.54 3.42-6.94 3.47-11.6 3.5-0.764 0.0173-1.53 0.0347-2.32 0.0526-2.54 0.0535-5.08 0.0854-7.62 0.117-1.8 0.0323-3.61 0.0655-5.41 0.0996-5.68 0.101-11.4 0.168-17 0.228-0.887 0.00955-1.77 0.0191-2.69 0.0289-13.5 0.141-26.9 0.185-40.4 0.209-1.96 0.00407-3.92 0.00819-5.88 0.0124-9.18 0.0188-18.4 0.0331-27.5 0.0416-10.5 0.00988-21 0.0366-31.5 0.0765-8.21 0.0301-16.4 0.045-24.6 0.0483-4.87 0.00234-9.74 0.0112-14.6 0.0365-4.55 0.0232-9.1 0.0275-13.6 0.0172-1.66-4.96e-4 -3.33 0.00584-4.99 0.0196-2.27 0.0177-4.55 0.0106-6.82-0.00253-1.27 0.00239-2.54 0.00478-3.85 0.00724-4.23-0.609-6.1-1.91-9.44-4.49 0.312-1.88 0.312-1.88 1-4 3.6-2.4 5.26-2.27 9.55-2.32 0.666-0.01 1.33-0.0201 2.02-0.0304 2.23-0.0311 4.46-0.048 6.69-0.0648 1.58-0.0189 3.17-0.0386 4.75-0.059 4.29-0.0524 8.58-0.0919 12.9-0.128 3.6-0.0318 7.2-0.07 10.8-0.108 33-0.345 66-0.5 99.1-0.304z" fill="#000204"/>
<path transform="translate(709 639)" d="m0 0c0.872-0.00539 1.74-0.0108 2.64-0.0163 2.91-0.0143 5.82-0.00718 8.72-5.29e-5 2.09-0.0057 4.18-0.0127 6.27-0.0208 5.67-0.0179 11.3-0.0168 17-0.0111 4.73 0.00309 9.46-3e-3 14.2-0.00904 11.2-0.014 22.3-0.0125 33.5-0.0011 11.5 0.0115 23-0.00261 34.5-0.0294 9.89-0.0221 19.8-0.0288 29.7-0.0229 5.91 0.00337 11.8 9.31e-4 17.7-0.0163 5.55-0.0154 11.1-0.0115 16.7 0.00731 2.04 0.00369 4.07 5.6e-4 6.11-0.00989 2.78-0.0132 5.56-0.0017 8.34 0.016 0.807-0.00961 1.61-0.0192 2.44-0.0291 5.17 0.0676 8.29 0.989 12.3 4.53v3c-6.75 3.8-13.2 3.37-20.8 3.26-1.37-0.00847-2.75-0.0154-4.12-0.021-2.92-0.0143-5.84-0.0372-8.75-0.0673-6.88-0.0704-13.8-0.0973-20.6-0.125-1.53-0.00629-3.06-0.0131-4.59-0.0205-12.8-0.0608-25.5 0.138-38.3 0.538-15.9 0.483-31.7 0.312-47.7-0.233-7.52-0.256-15-0.361-22.5-0.338-9.6 0.0258-19.2-0.0891-28.8-0.254-2.12-0.0338-4.23-0.0616-6.35-0.084-3.1-0.0334-6.21-0.0856-9.31-0.142-0.943-0.00639-1.89-0.0128-2.86-0.0194-4.9-0.11-8.24-0.343-12.2-3.49 1-3 1-3 4.01-4.66 4.3-1.67 8.31-1.76 12.9-1.72z" fill="#000204"/>
<path transform="translate(541 950)" d="m0 0c0.885 0.00583 1.77 0.0117 2.68 0.0177 0.937-0.00171 1.87-0.00342 2.84-0.00518 3.16-0.00331 6.32 0.00773 9.48 0.0186 2.26 5.64e-4 4.51 2.48e-4 6.77-8.85e-4 6.14-5.76e-4 12.3 0.0112 18.4 0.0251 6.41 0.0125 12.8 0.0137 19.2 0.0161 10.8 0.00552 21.5 0.018 32.3 0.0359 11.1 0.0184 22.2 0.0325 33.3 0.041 0.683 5.25e-4 1.37 0.00105 2.07 0.00159 3.43 0.00261 6.86 0.00514 10.3 0.00762 28.5 0.0207 56.9 0.0561 85.4 0.101 0.99 2.48 0.99 2.48 2 5-7.81 6.83-21.3 5.29-31.1 5.23-1.41-7.8e-4 -2.81-7.54e-4 -4.22-1.53e-5 -3.87-9.55e-4 -7.75-0.0154-11.6-0.0328-3.32-0.0137-6.64-0.0207-9.95-0.0281-10.7-0.0248-21.4-0.0765-32.1-0.133-4.93-0.026-9.86-0.0501-14.8-0.0729-17.9-0.0827-35.7-0.182-53.6-0.298-5.06-0.0324-10.1-0.0603-15.2-0.0866-6.9-0.0361-13.8-0.083-20.7-0.137-2.57-0.0185-5.14-0.0338-7.71-0.0455-3.55-0.0169-7.09-0.0458-10.6-0.0778-1.03-0.00216-2.06-0.00432-3.12-0.00654-6.06-0.0699-11.4-0.793-17.3-2.31-0.625-2.38-0.625-2.38-1-5 2.66-2.66 4.63-2.24 8.25-2.26z" fill="#000204"/>
<path transform="translate(712 1213)" d="m0 0c3.28 0.0288 6.56 0.0546 9.84 0.08 5.13 0.0409 10.3 0.0931 15.4 0.155 1.87 0.0213 3.74 0.0396 5.61 0.0546 2.54 0.0214 5.07 0.0551 7.61 0.0923 1.1 0.00559 1.1 0.00559 2.23 0.0113 3.95 0.0733 7.2 0.362 10.7 2.32 0.33 0.99 0.66 1.98 1 3-3.54 3.39-7.03 3.55-11.7 3.73-0.771 0.0402-1.54 0.0804-2.34 0.122-2.55 0.127-5.11 0.232-7.66 0.335-0.887 0.0397-1.77 0.0795-2.69 0.12-19.2 0.86-38.4 0.894-57.6 0.727-4.62-0.038-9.25-0.0635-13.9-0.0907-7.72-0.0473-15.4-0.103-23.2-0.165-8.89-0.0709-17.8-0.131-26.7-0.184-9.56-0.0574-19.1-0.122-28.7-0.189-2.72-0.0187-5.45-0.0362-8.17-0.0535-4.27-0.0275-8.55-0.0599-12.8-0.096-1.56-0.0125-3.12-0.0234-4.67-0.0326-23.5-0.142-23.5-0.142-28.9-3.22 1-3 1-3 3.45-4.66 4.56-1.72 8.46-1.79 13.3-1.79 0.974-0.0118 1.95-0.0235 2.95-0.0357 3.25-0.0354 6.5-0.0494 9.75-0.063 2.32-0.02 4.64-0.041 6.96-0.0631 6.27-0.0551 12.5-0.0902 18.8-0.12 3.9-0.0199 7.8-0.045 11.7-0.0718 36.6-0.249 73.2-0.243 110 0.0856z" fill="#000204"/>
<path transform="translate(728 1230)" d="m0 0c2.01-0.00464 4.02-0.00966 6.03-0.015 5.44-0.013 10.9-0.0196 16.3-0.024 3.4-0.00294 6.8-0.00705 10.2-0.0115 10.6-0.0136 21.3-0.0233 31.9-0.0272 12.3-0.00449 24.5-0.0221 36.8-0.051 9.5-0.0216 19-0.0317 28.5-0.033 5.67-0.00105 11.3-0.00696 17-0.0248 5.32-0.0165 10.6-0.0187 16-0.00986 1.95 7.72e-4 3.91-0.00359 5.86-0.0135 2.67-0.0127 5.33-0.00686 8 0.00358 0.773-0.00806 1.55-0.0161 2.34-0.0244 4.75 0.0435 8.1 0.772 12.1 3.39 0.33 0.99 0.66 1.98 1 3-9.64 6.56-24.3 4.13-35.6 4.07-1.87-0.00511-3.74-0.00975-5.61-0.014-4.36-0.0105-8.72-0.0241-13.1-0.0388-7.97-0.0247-15.9-0.0308-23.9-0.0366-16.8-0.0127-33.7-0.053-50.5-0.117-9.37-0.0349-18.7-0.06-28.1-0.0634-8.3-0.00304-16.6-0.0234-24.9-0.065-4.36-0.0212-8.72-0.034-13.1-0.0256-4.06 0.00751-8.13-0.00818-12.2-0.0419-1.49-0.00824-2.97-0.00797-4.46 0.00146-2.03 0.0116-4.06-0.0104-6.08-0.0342-1.13-0.00277-2.27-0.00553-3.43-0.00838-3.93-0.82-5.46-2.63-8.02-5.63 10.3-6.42 25.2-4.15 37-4.16z" fill="#000204"/>
<path transform="translate(805 671)" d="m0 0c8.5-0.0369 17-0.0625 25.5-0.0757 1.39-0.00226 2.79-0.00485 4.18-0.00778 40.4-0.0844 40.4-0.0844 50.6 3.13 0.381 1.99 0.713 3.99 1 6-3.12 3.12-12.6 2.13-16.6 2.15-0.724 0.00368-1.45 0.00735-2.19 0.0111-2.4 0.0109-4.81 0.0149-7.21 0.0187-1.73 0.00627-3.46 0.0129-5.2 0.0199-5.66 0.0209-11.3 0.0314-17 0.0414-1.95 0.00405-3.91 0.00817-5.86 0.0124-9.18 0.019-18.4 0.0333-27.5 0.0416-10.6 0.00978-21.2 0.0361-31.7 0.0765-8.19 0.0302-16.4 0.045-24.6 0.0483-4.89 0.00235-9.78 0.0113-14.7 0.0365-4.6 0.0233-9.19 0.0275-13.8 0.0172-1.68-4.95e-4 -3.37 0.00581-5.05 0.0196-15.7 0.121-15.7 0.121-22.5-4.49v-2c5.77-3.27 9.89-4.59 16.5-4.55 0.812-0.0103 1.62-0.0207 2.46-0.0313 2.69-0.0294 5.37-0.0309 8.05-0.0322 1.91-0.0151 3.83-0.032 5.74-0.0504 5.13-0.0443 10.3-0.0642 15.4-0.0789 5.32-0.019 10.6-0.0594 16-0.0968 11.7-0.0773 23.3-0.119 35-0.155 4.55-0.015 9.1-0.0353 13.7-0.0556z" fill="#000204"/>
<path transform="translate(543 916)" d="m0 0c0.651-0.00241 1.3-0.00483 1.97-0.00732 2.19-0.00565 4.37 0.00303 6.56 0.0116 1.57-0.00107 3.13-0.00301 4.7-0.00575 4.27-0.00486 8.53 0.00282 12.8 0.013 4.48 0.00879 8.95 0.00702 13.4 0.00664 7.53 9.38e-4 15.1 0.00963 22.6 0.0233 8.67 0.0156 17.3 0.021 26 0.0203 9.26-6.8e-4 18.5 0.0063 27.8 0.0154 2.65 0.00212 5.3 0.00284 7.94 0.00324 4.2 0.00102 8.4 0.00724 12.6 0.0172 1.53 0.00288 3.05 0.00416 4.58 0.00357 8.1-0.00194 16.2 0.159 24.3 0.593 0.735 0.0387 1.47 0.0774 2.23 0.117 4.42 0.26 8.81 0.558 13.2 1.44 1.94 2.56 1.94 2.56 3 5-4.2 3.04-7.23 3.38-12.4 3.38-1.1 0.00702-1.1 0.00702-2.22 0.0142-2.45 0.0119-4.9 0.00249-7.35-0.00695-1.76 0.00407-3.52 0.00941-5.28 0.0159-4.78 0.0137-9.55 0.00837-14.3-0.00114-5-0.0076-10-5.5e-4 -15 0.00416-8.41 0.00546-16.8-0.00174-25.2-0.016-9.71-0.0163-19.4-0.0111-29.1 0.00548-8.34 0.0136-16.7 0.0155-25 0.00768-4.98-0.00467-9.96-0.00533-14.9 0.00461-4.69 0.0087-9.37 0.0026-14.1-0.0147-1.72-0.00395-3.43-0.00285-5.15 0.00379-8.45 0.0297-16 0.0242-23.9-3.4 0.312-2.38 0.312-2.38 1-5 3.58-2.39 5.14-2.25 9.39-2.25z" fill="#000204"/>
<path transform="translate(706 933)" d="m0 0c0.886 2.52e-5 1.77 5.04e-5 2.68 7.63e-5 3.01 0.00185 6.01 0.0115 9.02 0.0214 2.17 0.00381 4.34 0.00743 6.52 0.0109 29.1 0.0605 58.2 0.302 87.3 0.528 7.99 0.062 16 0.122 24 0.181 16.3 0.122 32.7 0.247 49 0.373 0.99 1.98 0.99 1.98 2 4-3.61 4.69-3.61 4.69-7.11 5.46-6.27 0.489-12.5 0.678-18.8 0.665-1.04 0.00175-2.09 0.0035-3.16 0.00531-3.44 0.00439-6.88 0.00148-10.3-0.00189-2.45 6.76e-4 -4.9 0.00165-7.36 0.0029-5.17 0.00147-10.3-6.63e-4 -15.5-0.00534-6.44-0.00556-12.9-0.00239-19.3 0.00342-25.7 0.0199-51.4-0.0688-77-0.461-2.45-0.0369-4.91-0.0709-7.36-0.102-3.39-0.0442-6.77-0.101-10.2-0.162-0.99-0.0112-1.98-0.0223-3-0.0338-5.59-0.117-10.6-0.552-15.9-2.38-0.33-0.99-0.66-1.98-1-3 4.83-5.16 8.68-5.14 15.5-5.12z" fill="#000204"/>
<path transform="translate(566 655)" d="m0 0c9.04-0.0911 18.1-0.104 27.1-0.0958 3.92 0.00258 7.85 1.71e-4 11.8-0.00139 6.58-0.0018 13.2 5.41e-4 19.7 0.00534 7.56 0.00545 15.1 0.00367 22.7-0.00183 6.55-0.00457 13.1-0.00517 19.6-0.00256 3.88 0.00154 7.77 0.00181 11.7-0.00154 9.27-0.00663 18.5 0.029 27.8 0.136 0.973 0.00789 1.95 0.0158 2.95 0.0239 2.42 0.029 4.84 0.0911 7.26 0.172 1.23 0.0336 2.46 0.0672 3.72 0.102 3.92 0.898 5.51 2.68 8.07 5.7-1.03 1.97-1.03 1.97-3 4-2.62 0.411-4.84 0.56-7.46 0.539-1.15 0.0144-1.15 0.0144-2.32 0.0291-2.58 0.0274-5.15 0.0262-7.73 0.0252-1.84 0.0136-3.69 0.029-5.53 0.0459-5.02 0.0408-10 0.0564-15 0.0669-5.25 0.0143-10.5 0.0487-15.7 0.0802-8.81 0.0497-17.6 0.0833-26.4 0.107-10.2 0.0279-20.4 0.0807-30.6 0.147-9.8 0.0632-19.6 0.109-29.4 0.147-4.17 0.0165-8.34 0.0389-12.5 0.0661-4.91 0.0311-9.83 0.0473-14.7 0.0518-1.8 0.00406-3.61 0.0133-5.41 0.028-2.46 0.0192-4.92 0.0198-7.38 0.0156-0.715 0.0099-1.43 0.0198-2.17 0.03-4.33-0.0323-7.14-0.666-10.6-3.38v-2c5.32-4.73 10.5-5.76 17.4-5.8 0.941-0.0241 1.88-0.0481 2.85-0.0729 4.44-0.0976 8.89-0.114 13.3-0.161z" fill="#000204"/>
<path transform="translate(707 1263)" d="m0 0c0.738-0.00397 1.48-0.00795 2.24-0.012 2.46-0.00957 4.91 0.00216 7.37 0.014 1.77-0.00243 3.54-0.00615 5.3-0.0111 4.79-0.00939 9.58-2.54e-6 14.4 0.0133 5.01 0.0113 10 0.00721 15 0.00525 8.42-8.82e-4 16.8 0.0102 25.2 0.0286 9.73 0.0212 19.5 0.0247 29.2 0.0184 9.36-0.00569 18.7-5.19e-5 28.1 0.0112 3.99 0.00465 7.97 0.00552 12 0.00341 4.69-0.00188 9.38 0.00621 14.1 0.0221 1.72 0.00425 3.44 0.00509 5.17 0.00231 2.35-0.00322 4.7 0.00585 7.04 0.0181 1.31 0.00205 2.63 0.00411 3.98 0.00622 3.07 0.238 4.81 0.455 7.28 2.25 0.33 0.99 0.66 1.98 1 3-5.09 5.57-12.7 4.58-19.8 4.91-6.33 0.246-12.7 0.201-19 0.172-1.61-0.00361-3.22-0.00681-4.83-0.00964-4.31-0.00926-8.63-0.0256-12.9-0.0444-2.7-0.0117-5.4-0.0224-8.1-0.0327-8.47-0.0331-16.9-0.071-25.4-0.115-9.74-0.0509-19.5-0.0851-29.2-0.105-7.56-0.0167-15.1-0.0485-22.7-0.0918-4.51-0.0255-9.01-0.0444-13.5-0.0474-4.23-0.00315-8.45-0.0251-12.7-0.0616-1.55-0.0101-3.1-0.0134-4.65-0.00947-2.12 0.0044-4.23-0.0158-6.35-0.0419-1.18-0.00499-2.37-0.00997-3.59-0.0151-3.95-0.619-6.17-2.01-9.25-4.51v-2c5.13-2.5 8.85-3.37 14.6-3.37z" fill="#000204"/>
<path transform="translate(551 1246)" d="m0 0c0.725-0.00383 1.45-0.00765 2.2-0.0116 2.41-0.0102 4.81-0.00636 7.22-0.00237 1.74-0.00435 3.47-0.00954 5.21-0.0155 4.7-0.0134 9.39-0.014 14.1-0.0114 3.92 0.00107 7.85-0.00382 11.8-0.00861 9.26-0.0111 18.5-0.0115 27.8-0.00549 9.55 0.00605 19.1-0.00629 28.6-0.0276 8.2-0.0176 16.4-0.0236 24.6-0.0204 4.9 0.00181 9.79-8.23e-4 14.7-0.0147 4.6-0.0126 9.2-0.0106 13.8 0.00241 1.69 0.00237 3.37-3.73e-4 5.06-0.00862 2.31-0.0105 4.61-0.00238 6.92 0.0103 1.29-1.68e-4 2.58-3.35e-4 3.91-5.08e-4 3.81 0.41 6.24 1.36 9.48 3.37 0.875 2.19 0.875 2.19 1 4-3.71 2.47-6.77 2.45-11.1 2.62-1.2 0.0565-1.2 0.0565-2.43 0.114-8.39 0.363-16.8 0.389-25.2 0.351-1.68-0.00361-3.36-0.00681-5.05-0.00964-4.51-0.00924-9.01-0.0255-13.5-0.0444-2.82-0.0117-5.64-0.0224-8.46-0.0327-8.84-0.0331-17.7-0.071-26.5-0.115-10.2-0.051-20.4-0.0851-30.5-0.105-7.9-0.0167-15.8-0.0485-23.7-0.0918-4.71-0.0255-9.41-0.0444-14.1-0.0474-4.41-0.00314-8.82-0.025-13.2-0.0616-1.62-0.0101-3.24-0.0134-4.86-0.00947-2.21 0.00437-4.41-0.0156-6.62-0.0419-1.23-0.00499-2.47-0.00997-3.74-0.0151-2.99-0.511-2.99-0.511-4.91-2.54-0.356-0.649-0.712-1.3-1.08-1.97 4-5.5 12.5-5.25 18.6-5.26z" fill="#000204"/>
<path transform="translate(557 329)" d="m0 0c1.04-0.0034 1.04-0.0034 2.1-0.00687 2.29-0.00628 4.59-0.00551 6.88-0.00469 1.65-3e-3 3.31-0.0064 4.96-0.0102 4.48-0.0088 8.95-0.0112 13.4-0.0118 2.8-7.12e-4 5.6-0.00285 8.4-0.0055 9.77-0.00924 19.5-0.0133 29.3-0.0125 9.1 6.01e-4 18.2-0.00997 27.3-0.0257 7.82-0.0131 15.6-0.0184 23.5-0.0178 4.67 2.55e-4 9.34-0.00258 14-0.0132 4.39-0.00969 8.78-0.00975 13.2-0.00248 1.61 0.00104 3.22-0.00131 4.82-0.00736 2.2-0.00774 4.4-0.00306 6.6 0.00463 1.84-8.17e-4 1.84-8.17e-4 3.73-0.00165 3.76 0.269 6.93 0.987 10.5 2.25 1.44 2.12 1.44 2.12 2 4-3.93 2.75-6.68 3.4-11.5 3.5-1.29 0.0345-2.58 0.069-3.9 0.104-1.41 0.0225-2.82 0.0444-4.23 0.0657-1.48 0.0324-2.96 0.0657-4.44 0.0998-4.66 0.101-9.32 0.168-14 0.225-0.731 0.0091-1.46 0.0182-2.21 0.0276-10.3 0.123-20.7 0.16-31 0.173-2.41 0.00299-4.82 0.0071-7.24 0.0115-7.59 0.0135-15.2 0.0233-22.8 0.0272-8.69 0.00453-17.4 0.0223-26.1 0.051-6.79 0.0216-13.6 0.0317-20.4 0.033-4.03 0.00104-8.06 0.00687-12.1 0.0248-3.76 0.0165-7.53 0.0186-11.3 0.00986-2.03-0.00114-4.06 0.0126-6.09 0.0268-1.21-0.00557-2.43-0.0111-3.68-0.0169-1.58 0.0022-1.58 0.0022-3.18 0.00444-3.49-0.436-5.93-1.65-8.97-3.37 0.973-2.65 1.62-3.79 4.12-5.19 5.98-1.69 12-1.94 18.2-1.95z" fill="#000204"/>
<path transform="translate(719 345)" d="m0 0c1.42-0.00136 2.83-0.00314 4.25-0.00531 3.84-0.00455 7.68-0.00279 11.5 3.79e-4 4.05 0.00255 8.1 1.79e-4 12.1-0.00139 6.82-0.00182 13.6 5.74e-4 20.5 0.00534 7.81 0.0054 15.6 0.00371 23.4-0.00183 6.75-0.00459 13.5-0.00515 20.3-0.00256 4.01 0.00154 8.02 0.00183 12-0.00154 15-0.0107 29.9 0.0278 44.9 0.52 1.07 0.0303 2.15 0.0607 3.25 0.0919 1.47 0.0571 1.47 0.0571 2.97 0.115 0.848 0.0306 1.7 0.0612 2.57 0.0927 2.52 0.349 4.17 0.914 6.29 2.32 0.33 0.99 0.66 1.98 1 3-2.24 2.57-3.66 3.41-7 4-2.4 0.0968-4.79 0.135-7.19 0.14-1.09 0.00446-1.09 0.00446-2.2 9e-3 -2.43 0.00867-4.86 0.0102-7.29 0.0117-1.74 0.00463-3.49 0.00965-5.23 0.015-4.74 0.0131-9.47 0.0196-14.2 0.024-2.96 0.00293-5.92 0.00704-8.88 0.0115-9.26 0.0137-18.5 0.0233-27.8 0.0272-10.7 0.00448-21.4 0.022-32.1 0.051-8.26 0.0216-16.5 0.0317-24.8 0.033-4.93 0.00105-9.87 0.00695-14.8 0.0248-4.64 0.0165-9.28 0.0186-13.9 0.00986-1.7-7.7e-4 -3.4 0.00357-5.1 0.0135-2.33 0.0127-4.65 0.00684-6.98-0.00358-1.3 0.00147-2.6 0.00293-3.94 0.00444-4.17-0.428-6.88-1.54-10.6-3.37 0.93-2.32 1.62-3.73 3.69-5.19 7.42-2.61 15.5-1.95 23.3-1.94z" fill="#000204"/>
<path transform="translate(747 900)" d="m0 0c16-0.084 32.1-0.0813 48.1-0.0498 5.95 0.0105 11.9 0.0149 17.8 0.0198 11.5 0.0105 23.1 0.0274 34.6 0.0488 0.99 2.97 0.99 2.97 2 6-5.86 5.09-9.92 5.71-17.6 5.55-1.04-8.76e-4 -2.08-0.00175-3.15-0.00266-3.42-0.00856-6.84-0.0523-10.3-0.096-2.39-0.0119-4.77-0.0214-7.16-0.0286-6.28-0.0247-12.6-0.0786-18.8-0.139-8.84-0.0804-17.7-0.122-26.5-0.167-4.7-0.0241-9.4-0.0593-14.1-0.103-2.16-0.0164-4.32-0.0328-6.48-0.0491-1.44-0.0172-1.44-0.0172-2.92-0.0347-5.36-0.0344-10.6 0.229-15.9 0.846-4.72 0.497-9.45 0.128-14.2-0.0897-1.02-0.0354-2.05-0.0709-3.1-0.107-6.18-0.265-11.8-1.05-17.8-2.58-0.75-1.75-0.75-1.75-1-4 1.62-2.42 2.97-3.79 5.88-4.39 2.44-0.175 4.85-0.217 7.29-0.22 1.4-0.0246 1.4-0.0246 2.82-0.0497 3.1-0.0492 6.21-0.0695 9.31-0.0892 2.2-0.0277 4.4-0.0567 6.6-0.087 8.19-0.103 16.4-0.141 24.6-0.186z" fill="#000204"/>
<path transform="translate(591 688)" d="m0 0c14.1-0.087 28.1-0.136 42.2-0.164 3.11-0.00716 6.21-0.0175 9.32-0.0285 4.97-0.0168 9.94-0.0226 14.9-0.0206 1.85-7.14e-4 3.71-0.00478 5.56-0.0125 21-0.0804 21-0.0804 26.4 2.24 2 3 2 3 2 6-3.46 2.11-6.18 2.25-10.2 2.25-1.27 0.00564-2.54 0.0113-3.85 0.0171-1.41-0.00389-2.81-0.00798-4.22-0.0123-1.48 0.00271-2.97 0.00627-4.45 0.0106-4.03 0.00912-8.05 0.00558-12.1-7.58e-4 -4.21-0.00506-8.42-3.68e-4 -12.6 0.00277-7.07 0.00364-14.1-0.00116-21.2-0.0107-8.18-0.0109-16.4-0.00736-24.5 0.00365-7.02 0.00907-14 0.0104-21.1 0.00512-4.19-0.00312-8.39-0.00353-12.6 0.00307-3.94 0.00577-7.88 0.00179-11.8-0.00979-1.45-0.00265-2.9-0.00188-4.35 0.00253-1.97 0.00545-3.95-0.00259-5.92-0.0114-1.11-7.54e-4 -2.21-0.00151-3.35-0.00229-2.72-0.252-2.72-0.252-5.72-2.25 0.125-1.81 0.125-1.81 1-4 4.59-2.87 8.6-3.47 13.9-3.51 0.81-0.0181 1.62-0.0362 2.45-0.0548 2.78-0.0563 5.56-0.0894 8.35-0.121 2.02-0.0321 4.04-0.0644 6.06-0.0969 8.61-0.124 17.2-0.178 25.8-0.232z" fill="#000204"/>
<path transform="translate(546 1279)" d="m0 0c1.24-0.0128 2.48-0.0256 3.76-0.0388 1.36 0.00105 2.72 0.00243 4.08 0.00412 1.44-0.00898 2.89-0.0192 4.33-0.0305 3.91-0.0264 7.81-0.0335 11.7-0.0354 2.44-0.00214 4.88-0.00854 7.32-0.0165 8.52-0.0277 17-0.04 25.6-0.0376 7.94 0.0018 15.9-0.0299 23.8-0.0772 6.82-0.0392 13.6-0.0553 20.5-0.0534 4.07 7.65e-4 8.14-0.00781 12.2-0.0395 3.83-0.029 7.65-0.0293 11.5-0.00745 1.4 0.00314 2.81-0.00398 4.21-0.0221 10.7-0.129 10.7-0.129 13.5 2.14 1.13 1.66 1.13 1.66 2.26 4.62-0.33 0.66-0.66 1.32-1 2-11 3.68-25 2.07-36.5 2.05-0.709-6.96e-4 -1.42-0.00139-2.15-0.00211-19.6-0.0203-39.1-0.161-58.7-0.336-5.66-0.0506-11.3-0.0971-17-0.134-5.58-0.0367-11.2-0.083-16.7-0.136-2.1-0.0185-4.21-0.0336-6.31-0.0453-2.91-0.0168-5.82-0.0458-8.72-0.0778-0.862-0.00216-1.72-0.00432-2.61-0.00655-3.93-0.0556-5.94-0.0863-9.28-2.31 1.04-3.03 1.9-3.94 4.69-5.61 3.49-1.47 5.82-1.77 9.58-1.79z" fill="#000204"/>
<path transform="translate(818 704)" d="m0 0c2.1 0.0368 4.21 0.0708 6.31 0.102 2.89 0.0447 5.78 0.102 8.67 0.165 1.27 0.0173 1.27 0.0173 2.57 0.035 7.3 0.186 7.3 0.186 10.3 2.38 1.25 2.12 1.25 2.12 2 4-4.27 2.42-7.34 3.38-12.2 3.38-1.85 0.0127-1.85 0.0127-3.73 0.0256-1.35-0.00583-2.7-0.012-4.05-0.0184-1.43 0.00407-2.87 0.00941-4.3 0.0159-3.88 0.0136-7.76 0.00839-11.6-0.00114-4.06-0.00761-8.13-5.48e-4 -12.2 0.00416-6.82 0.00545-13.6-0.00172-20.5-0.016-7.89-0.0163-15.8-0.011-23.7 0.00548-6.77 0.0136-13.5 0.0155-20.3 0.00768-4.04-0.00468-8.09-0.0053-12.1 0.00461-3.8 0.00866-7.6 0.00266-11.4-0.0147-1.39-0.00397-2.79-0.00283-4.18 0.00379-1.9 0.00819-3.81-0.0039-5.71-0.017-1.6-0.0017-1.6-0.0017-3.23-0.00343-3.14-0.43-4.55-1.12-6.76-3.38v-3c3.93-3.18 7.28-3.41 12.2-3.51 0.725-0.018 1.45-0.0361 2.2-0.0547 2.44-0.0557 4.88-0.0891 7.32-0.121 1.76-0.0325 3.52-0.0656 5.29-0.0991 33-0.573 66.1-0.476 99.1 0.106z" fill="#000204"/>
<path transform="translate(718 1295)" d="m0 0c1.27-0.00336 2.55-0.00672 3.86-0.0102 3.48-0.00879 6.95-0.0112 10.4-0.0118 2.18-7.13e-4 4.35-0.00285 6.53-0.0055 7.6-0.00923 15.2-0.0133 22.8-0.0125 7.07 6.01e-4 14.1-0.00996 21.2-0.0257 6.09-0.0131 12.2-0.0184 18.3-0.0178 3.63 2.54e-4 7.25-0.00254 10.9-0.0132 4.05-0.0115 8.09-0.00692 12.1-8.95e-4 1.19-0.00562 2.38-0.0112 3.6-0.017 13.8 0.0521 13.8 0.0521 18.4 2.26 1.24 2.08 1.24 2.08 2 4-6.62 4.96-12.9 4.56-20.9 4.5-1.41 0.00379-2.82 0.00929-4.23 0.0164-3.82 0.0139-7.64 0.00281-11.5-0.0137-4-0.0139-8-0.00739-12-0.00387-6.72 0.0027-13.4-0.0107-20.1-0.034-7.76-0.0266-15.5-0.0283-23.3-0.0166-7.47 0.0108-14.9 0.00459-22.4-0.00956-3.18-0.00575-6.36-0.00568-9.53-9.35e-4 -3.74 0.00478-7.48-0.00536-11.2-0.027-2.03-0.00821-4.05-0.00172-6.08 0.0052-1.21-0.0099-2.42-0.0198-3.66-0.03-1.05-0.00243-2.1-0.00486-3.18-0.00736-3.25-0.435-5.17-1.52-7.84-3.38 0.25-1.88 0.25-1.88 1-4 6.21-4.72 17.6-3.15 24.9-3.15z" fill="#000204"/>
<path transform="translate(768 312)" d="m0 0c1.63 0.00228 3.26 0.00452 4.89 0.00671 10.8 0.0163 21.6 0.0579 32.4 0.118 1.79 0.00937 1.79 0.00937 3.62 0.0189 5.64 0.0327 11.3 0.0851 16.9 0.191 1.51 0.0266 3.01 0.0471 4.52 0.0609 1.99 0.0207 3.99 0.0694 5.98 0.12 1.05 0.0209 2.11 0.0419 3.19 0.0635 3.47 0.679 5.22 2.18 7.79 4.55-1.75 3.88-1.75 3.88-4 5-1.93 0.1-3.86 0.135-5.79 0.14-1.23 0.00571-2.47 0.0114-3.74 0.0173-1.37 0.00125-2.75 0.00237-4.12 0.00339-1.44 0.00463-2.88 0.00965-4.33 0.015-3.92 0.0131-7.85 0.0196-11.8 0.024-2.45 0.00293-4.9 0.00703-7.35 0.0115-7.66 0.0137-15.3 0.0233-23 0.0272-8.85 0.00448-17.7 0.022-26.6 0.051-6.84 0.0216-13.7 0.0317-20.5 0.033-4.09 0.00105-8.17 0.00698-12.3 0.0248-3.84 0.0165-7.69 0.0187-11.5 0.00986-1.41-7.72e-4 -2.82 0.00359-4.23 0.0135-1.93 0.0127-3.85 0.00507-5.78-0.00358-1.08 0.00147-2.16 0.00293-3.27 0.00444-3.11-0.416-4.49-1.28-6.78-3.37 0.991-2.7 1.58-3.79 4.19-5.11 3.12-0.992 5.73-1.21 9-1.3 1.24-0.0381 2.48-0.0762 3.75-0.116 1.36-0.0313 2.71-0.0619 4.07-0.092 1.43-0.0377 2.85-0.0756 4.28-0.114 16.8-0.422 33.6-0.425 50.4-0.394z" fill="#000204"/>
<path transform="translate(558 884)" d="m0 0c1.34-3e-3 2.68-0.0064 4.01-0.0102 3.61-0.00879 7.23-0.0112 10.8-0.0118 2.26-7.13e-4 4.52-0.00285 6.78-0.0055 7.9-0.00923 15.8-0.0133 23.7-0.0125 7.35 6.01e-4 14.7-0.00996 22-0.0257 6.32-0.0131 12.6-0.0184 19-0.0178 3.77 2.54e-4 7.54-0.00256 11.3-0.0132 3.55-0.00972 7.09-0.00974 10.6-0.00248 1.91 0.00154 3.82-0.00677 5.73-0.0154 6.2 0.0226 11.7 0.24 17.6 2.26 1.5 2.12 1.5 2.12 2 4-1.74 2.21-2.71 2.94-5.51 3.51-11.9 0.666-23.7 0.529-35.6 0.399-2.35-0.0218-4.69-0.0433-7.04-0.0644-4.91-0.0453-9.83-0.0945-14.7-0.147-6.2-0.0656-12.4-0.123-18.6-0.178-43.3-0.388-43.3-0.388-63.9-1-1.3-0.0368-2.59-0.0737-3.93-0.112-1.15-0.0387-2.3-0.0774-3.48-0.117-0.976-0.0327-1.95-0.0654-2.96-0.099-2.28-0.195-2.28-0.195-4.28-1.2 1.37-3.16 1.99-3.99 5-6 7.08-1.3 14.2-1.15 21.4-1.15z" fill="#000204"/>
<path transform="translate(643 296)" d="m0 0c1.27-9.06e-4 2.54-0.00181 3.85-0.00275 36.1 0.00293 36.1 0.00293 43.8 2.19 1.31 2.56 1.31 2.56 2 5-5.63 2.34-11 2.44-17 2.62-1.1 0.0377-2.19 0.0753-3.32 0.114-13.4 0.418-26.8 0.392-40.2 0.365-2.74-0.00244-5.49-0.00334-8.23-0.00429-6.41-0.00307-12.8-0.0112-19.2-0.0213-7.32-0.0113-14.6-0.0167-21.9-0.0217-15-0.0104-30-0.0279-45-0.0503 1-3 1-3 2.62-3.88 5.64-1.71 11.2-2.55 17-3.14 0.832-0.0852 1.66-0.17 2.52-0.258 9.09-0.896 18.2-1.44 27.3-1.85 0.904-0.042 1.81-0.0841 2.74-0.127 17.7-0.797 35.4-0.936 53.1-0.935z" fill="#000204"/>
<path transform="translate(701 868)" d="m0 0c0.913-0.0086 1.83-0.0172 2.77-0.0261 1-0.00426 2.01-0.00852 3.04-0.0129 1.06-0.00818 2.11-0.0164 3.2-0.0248 3.5-0.0249 7.01-0.0414 10.5-0.0558 1.19-0.00532 2.39-0.0106 3.62-0.0161 6.32-0.0267 12.6-0.0461 19-0.0605 6.54-0.0167 13.1-0.0614 19.6-0.112 5.02-0.0336 10-0.0452 15.1-0.0509 2.41-0.00673 4.82-0.022 7.23-0.0459 3.37-0.0315 6.74-0.0317 10.1-0.0243 0.998-0.0164 2-0.0328 3.02-0.0497 7.54 0.0681 7.54 0.0681 10.7 3.17 0.911 1.22 0.911 1.22 1.84 2.46-0.562 1.88-0.562 1.88-2 4-5.83 2.22-11.3 2.27-17.4 2.21-1.03-0.00143-2.05-0.00286-3.11-0.00433-3.38-0.00816-6.76-0.0319-10.1-0.0579-2.35-0.0135-4.71-0.0268-7.06-0.0399-4.93-0.0304-9.86-0.0698-14.8-0.114-6.32-0.0552-12.6-0.078-18.9-0.0929-4.86-0.0167-9.72-0.0557-14.6-0.101-2.33-0.018-4.66-0.0279-6.99-0.0295-3.25-0.00453-6.51-0.0403-9.76-0.0838-0.962 0.00548-1.92 0.011-2.92 0.0166-7.27-0.149-7.27-0.149-10.4-3.25-0.615-0.811-1.23-1.62-1.86-2.46 3.54-3.66 5.24-5.12 10.3-5.15z" fill="#000204"/>
<path transform="translate(725 279)" d="m0 0c8.91-0.0882 17.8-0.0973 26.7-0.0829 2.13 0.00196 4.25-3.12e-6 6.38-0.00342 9.35-0.0149 18.7 0.0292 28.1 0.13 1.15 0.00794 2.3 0.0159 3.48 0.024 3.1 0.0297 6.19 0.0935 9.29 0.171 0.892 0.00523 1.78 0.0105 2.7 0.0158 5.94 0.208 5.94 0.208 9.11 3.34 0.47 0.808 0.939 1.62 1.42 2.45-2.11 2.52-3.38 3.86-6.63 4.6-1.04 0.0449-2.09 0.0898-3.16 0.136-1.25 0.0552-2.5 0.11-3.79 0.167-1.47 0.0357-2.94 0.0664-4.42 0.0931-0.82 0.0152-1.64 0.0303-2.49 0.046-6.94 0.109-13.9 0.12-20.8 0.122-2.23 0.00322-4.47 0.00658-6.7 0.0101-4.65 0.00595-9.31 0.00784-14 0.00725-5.97-1.02e-4 -11.9 0.0136-17.9 0.0308-4.6 0.0111-9.2 0.0131-13.8 0.0126-2.2 0.00118-4.4 0.0056-6.6 0.0133-3.07 0.00977-6.13 0.00694-9.2 8.95e-4 -0.908 0.00562-1.82 0.0112-2.75 0.017-0.835-0.00419-1.67-0.00839-2.53-0.0127-0.723 5.45e-4 -1.45 0.00109-2.19 0.00165-2.35-0.288-3.98-1.09-6.03-2.25 0.223-3.12 0.995-4 3.38-6.09 4.49-2.84 9.28-2.58 14.5-2.65 1.09-0.0285 2.17-0.057 3.29-0.0864 4.91-0.114 9.81-0.159 14.7-0.215z" fill="#000204"/>
<path transform="translate(702 1328)" d="m0 0c1.37-0.00846 1.37-0.00846 2.77-0.0171 0.997 0.00405 1.99 0.0081 3.02 0.0123 1.58-0.00526 1.58-0.00526 3.2-0.0106 3.49-0.00881 6.99-0.00297 10.5 0.00378 2.43-0.00135 4.85-0.00329 7.28-0.0058 5.09-0.00295 10.2 0.00134 15.3 0.0107 6.52 0.0114 13 0.00484 19.6-0.00714 5.01-0.00723 10-0.00493 15 2.56e-4 2.4 0.00133 4.81-3.05e-4 7.21-0.00496 3.36-0.00508 6.72 0.00266 10.1 0.0138 0.995-0.00405 1.99-0.0081 3.02-0.0123 8.89 0.0546 8.89 0.0546 12.5 2.27 0.495 1.48 0.495 1.48 1 3-2.38 3.21-3.72 3.95-7.71 4.62-6.84 0.617-13.7 0.495-20.6 0.458-1.5-0.00454-3-0.00878-4.5-0.0127-3.95-0.0124-7.9-0.0324-11.9-0.0554-2.35-0.0136-4.7-0.0259-7.04-0.0378-8.44-0.0451-16.9-0.113-25.3-0.212-3.9-0.0455-7.8-0.0847-11.7-0.111-3.88-0.026-7.76-0.0662-11.6-0.117-1.45-0.0166-2.91-0.0281-4.36-0.0344-2-0.00959-4-0.0393-6.01-0.07-1.13-0.0111-2.26-0.0222-3.43-0.0336-3.18-0.436-4.57-1.25-6.91-3.4 0.956-2.39 1.58-3.74 3.79-5.12 2.44-0.975 4.17-1.13 6.79-1.14z" fill="#000204"/>
<path transform="translate(732 737)" d="m0 0c1.64-6.77e-4 3.27-0.00165 4.91-0.0029 3.4-0.00146 6.8 6.19e-4 10.2 0.00534 4.3 0.00569 8.61 0.00241 12.9-0.00357 3.37-0.00366 6.74-0.00244 10.1 1.28e-4 1.58 6.55e-4 3.17-1.08e-4 4.75-0.00248 8.47-0.00991 16.9 0.137 25.4 0.582 1.15 0.0581 1.15 0.0581 2.32 0.117 3.12 0.182 5.77 0.442 8.76 1.44 2 3 2 3 1.62 5.19-0.206 0.598-0.413 1.2-0.625 1.81-6.81 0.796-13.5 1.15-20.4 1.16-0.983 0.00496-1.97 0.00993-2.98 0.015-3.22 0.0145-6.44 0.0214-9.66 0.0269-1.11 0.00283-2.21 0.00565-3.35 0.00857-5.84 0.0149-11.7 0.0242-17.5 0.0285-6.02 0.0055-12 0.0296-18.1 0.058-4.65 0.0186-9.3 0.0238-13.9 0.0254-2.22 0.00302-4.44 0.011-6.66 0.0242-3.11 0.0171-6.21 0.0152-9.32 0.00869-1.36 0.0138-1.36 0.0138-2.76 0.0279-5.78-0.0377-10.1-1.06-15.4-3.38v-3c3.93-3.2 7.82-3.53 12.7-3.68 0.745-0.0331 1.49-0.0662 2.26-0.1 8.23-0.334 16.5-0.366 24.7-0.353z" fill="#000204"/>
<path transform="translate(571 1311)" d="m0 0c7.27-0.0782 14.5-0.0989 21.8-0.0863 3.68 0.00539 7.36-5.27e-6 11-0.00635 11.8-0.00453 23.7 0.117 35.5 0.52 1.57 0.0455 1.57 0.0455 3.18 0.092 1.45 0.0572 1.45 0.0572 2.93 0.116 0.843 0.0306 1.69 0.0613 2.55 0.0928 2.5 0.346 4.17 0.967 6.29 2.32 0.75 2.12 0.75 2.12 1 4-4.09 2.92-6.94 3.37-11.9 3.36-0.68 0.00202-1.36 0.00404-2.06 0.00613-2.25 0.00295-4.5-0.0156-6.76-0.0344-1.59-0.00273-3.19-0.00423-4.78-0.00458-4.24-0.00499-8.49-0.0291-12.7-0.0576-3.49-0.0211-6.97-0.0312-10.5-0.0413-23.8-0.0712-47.5-0.306-71.3-1.22-0.66-1.32-1.32-2.64-2-4 5.65-4.98 11.3-4.66 18.6-4.74 1.85-0.0428 1.85-0.0428 3.74-0.0864 5.14-0.107 10.3-0.154 15.4-0.215z" fill="#000204"/>
<path transform="translate(641 851)" d="m0 0c1.4 0.0336 1.4 0.0336 2.83 0.0679 7.33 0.314 7.33 0.314 10.5 3.62-0.312 1.88-0.312 1.88-1 4-3.14 2.1-3.88 2.25-7.46 2.27-0.913 0.00853-1.83 0.0171-2.77 0.0258-0.999-9.06e-4 -2-0.00181-3.03-0.00275-1.58 0.0101-1.58 0.0101-3.19 0.0204-3.49 0.019-6.99 0.0229-10.5 0.0251-2.43 0.00642-4.85 0.0132-7.28 0.0202-5.09 0.012-10.2 0.0157-15.3 0.0145-6.52-2.03e-4 -13 0.0271-19.6 0.0615-5.01 0.0222-10 0.0263-15 0.0252-2.4 0.00236-4.81 0.0112-7.21 0.0267-3.36 0.0196-6.73 0.0138-10.1 0.00179-0.993 0.0112-1.99 0.0225-3.01 0.0341-5.8-0.0529-9.24-0.584-13.6-4.52v-2c4-3.15 7.7-3.47 12.6-3.51 0.756-0.018 1.51-0.0361 2.29-0.0547 2.51-0.0553 5.02-0.0888 7.53-0.121 1.77-0.0324 3.55-0.0654 5.32-0.0991 25.9-0.454 51.9-0.733 77.9 0.0991z" fill="#000204"/>
<path transform="translate(565 264)" d="m0 0c1.61-0.00135 3.22-0.0033 4.83-0.0058 3.36-0.00293 6.73 0.00128 10.1 0.0107 4.24 0.0113 8.48 0.00468 12.7-0.00686 29.8-0.0693 29.8-0.0693 43.9 1.1 0.875 0.0691 1.75 0.138 2.65 0.209 5.66 0.554 10.7 1.96 16 3.96-2.22 2.58-3.59 3.4-6.97 3.72-0.802 0.0791-1.6 0.158-2.43 0.24-0.876 0.0689-1.75 0.138-2.65 0.209-0.925 0.0794-1.85 0.159-2.8 0.241-11.8 0.918-23.5 0.939-35.3 0.904-1.17-8.26e-4 -2.35-0.00165-3.56-0.0025-14.8-0.0239-29.5-0.328-44.3-1.68-0.694-0.063-1.39-0.126-2.1-0.191-12.6-1.19-12.6-1.19-17.9-3.43-0.33-0.99-0.66-1.98-1-3 9.62-2.02 19-2.3 28.8-2.27z" fill="#000204"/>
<path transform="translate(553 721)" d="m0 0c1.04-0.00526 2.09-0.0105 3.17-0.0159 3.44-0.0132 6.88-0.00448 10.3 0.00568 2.4-0.00202 4.79-0.00493 7.19-0.0087 5.02-0.00442 10 0.00199 15.1 0.016 6.43 0.0171 12.9 0.00724 19.3-0.0107 4.95-0.0108 9.89-0.00739 14.8 3.83e-4 2.37 2e-3 4.74-4.49e-4 7.11-0.00744 3.31-0.00763 6.62 0.00401 9.94 0.0207 1.47-0.00911 1.47-0.00911 2.96-0.0184 5.23 0.0488 9.04 0.391 13.5 3.41 0.875 2.19 0.875 2.19 1 4-2.43 1.22-3.98 1.13-6.7 1.13-1.49 0.00423-1.49 0.00423-3 0.00854-1.09-0.00202-2.18-0.00405-3.31-0.00613-1.72 0.00263-1.72 0.00263-3.47 0.00531-3.81 0.00442-7.61 0.00148-11.4-0.00189-2.64 6.73e-4 -5.27 0.00164-7.91 0.0029-5.53 0.00182-11.1-5.82e-4 -16.6-0.00534-6.4-0.00544-12.8-0.00368-19.2 0.00183-6.15 0.00508-12.3 0.00455-18.4 0.00162-2.62-6.69e-4 -5.24 1.57e-4 -7.86 0.00248-3.66 0.00253-7.31-0.00132-11-0.0069-1.63 0.00304-1.63 0.00304-3.3 0.00613-0.994-0.00282-1.99-0.00564-3.01-0.00854-0.865-3.77e-4 -1.73-7.54e-4 -2.62-0.00114-2.21-0.126-2.21-0.126-5.21-1.13 0.0625-1.81 0.0625-1.81 1-4 5.87-3.27 11-3.43 17.6-3.39z" fill="#000204"/>
<path transform="translate(714 246)" d="m0 0c0.833-0.00155 1.67-0.00309 2.53-0.00468 2.68-0.00244 5.36 0.00372 8.03 0.0125 0.911 0.00255 1.82 0.0051 2.76 0.00772 5.42 0.0178 10.8 0.0515 16.3 0.0977 2.2 0.0178 4.4 0.0304 6.6 0.0416 3.36 0.0263 6.71 0.0864 10.1 0.166 0.943 0.00564 1.89 0.0113 2.86 0.0171 4.22 0.144 6.91 0.299 10 3.35 0.624 0.808 1.25 1.62 1.89 2.45-2.67 3.21-4.16 4.84-8.33 5.62-1.27-0.00205-2.54-0.00411-3.84-0.00623-1.05 0.00832-1.05 0.00832-2.13 0.0168-2.31 0.0118-4.63-0.0125-6.94-0.0383-1.62-0.00171-3.23-0.00164-4.85 1.22e-4 -3.38-0.00165-6.76-0.0203-10.1-0.0519-4.33-0.0396-8.65-0.044-13-0.0365-3.33 0.00308-6.67-0.00908-10-0.0261-1.59-0.00701-3.19-0.0102-4.78-0.00931-2.23-0.00181-4.47-0.0233-6.7-0.0501-1.27-0.00842-2.54-0.0168-3.84-0.0255-3.75-0.427-6.22-1.52-9.46-3.39 1.25-3.65 1.67-4.78 5-7 5.88-1.24 12-1.15 18-1.13z" fill="#000204"/>
<path transform="translate(557 1344)" d="m0 0c1.57 0.00239 3.14 0.00329 4.71 0.00278 3.28 0.00312 6.56 0.0196 9.83 0.0465 4.2 0.0341 8.4 0.0416 12.6 0.0401 3.24 5.44e-4 6.48 0.0115 9.71 0.026 1.55 0.00635 3.1 0.0103 4.65 0.0118 2.16 0.00434 4.32 0.0219 6.48 0.0432 1.23 0.00762 2.46 0.0152 3.72 0.0231 2.99 0.256 4.68 0.571 7.12 2.27 1.25 2.62 1.25 2.62 2 5-3 2.61-4.82 3.37-8.78 3.36-1.43 0.00443-1.43 0.00443-2.88 0.00896-1.03-0.0123-2.06-0.0246-3.12-0.0373-1.07-0.00147-2.15-0.00293-3.26-0.00444-3.49-0.00925-6.98-0.0407-10.5-0.0737-2.38-0.0126-4.75-0.0244-7.13-0.0354-46.5-0.271-46.5-0.271-50.4-2.21 0.598-3.6 0.863-3.9 4.05-6.22 6.62-2.99 14-2.31 21.1-2.24z" fill="#000204"/>
<path transform="translate(715 1360)" d="m0 0c1.45 5.19e-4 2.91-1.61e-6 4.36-0.00151 3.04 8.94e-5 6.07 0.0105 9.11 0.0286 3.88 0.0227 7.75 0.0232 11.6 0.0165 3-0.00335 6 0.00332 8.99 0.0131 1.43 0.00383 2.86 0.00501 4.29 0.00341 2-3.74e-4 4 0.0138 6.01 0.0285 1.14 0.00461 2.27 0.00921 3.44 0.014 3.68 0.291 6.83 1 10.3 2.26 1.44 2.62 1.44 2.62 2 5-4.2 3.04-7.25 3.38-12.4 3.39-0.726 0.00526-1.45 0.0105-2.2 0.0159-2.39 0.0132-4.78 0.00448-7.17-0.00568-1.66 0.00202-3.33 0.00493-4.99 0.0087-3.48 0.00442-6.97-0.00199-10.5-0.016-4.46-0.0171-8.93-0.00724-13.4 0.0107-3.44 0.0108-6.87 0.00739-10.3-3.83e-4 -1.65-2e-3 -3.29 4.5e-4 -4.94 0.00744-2.3 0.00762-4.6-4e-3 -6.9-0.0207-1.31-0.00239-2.62-0.00477-3.96-0.00723-3.44-0.398-4.82-1.02-7.29-3.38 0.94-3.03 1.93-3.96 4.66-5.61 6.07-2.44 12.8-1.79 19.2-1.75z" fill="#000204"/>
<path transform="translate(559 231)" d="m0 0c1.48-0.00322 2.95-0.00658 4.43-0.0101 3.08-0.00595 6.16-0.00784 9.24-0.00725 3.94 1.02e-4 7.88-0.0136 11.8-0.0308 3.04-0.0111 6.09-0.0131 9.13-0.0126 1.45-0.00118 2.91-0.00558 4.36-0.0133 2.03-0.00982 4.06-0.00565 6.09-8.95e-4 1.15-0.00143 2.3-0.00285 3.49-0.00432 3.14 0.251 5.31 0.778 8.08 2.25 1.31 2.62 1.31 2.62 2 5-2.77 2.77-4.46 2.31-8.34 2.41-0.658 0.0195-1.32 0.0391-1.99 0.0592-2.2 0.0615-4.4 0.108-6.6 0.152-1.54 0.0361-3.09 0.0722-4.63 0.108-5.14 0.113-10.3 0.192-15.4 0.267-1.42 0.0216-1.42 0.0216-2.86 0.0436-5.88 0.0871-11.8 0.151-17.6 0.187-1.91 0.0132-3.83 0.0311-5.74 0.0538-2.7 0.0298-5.4 0.0396-8.1 0.0441-0.804 0.0123-1.61 0.0246-2.44 0.0373-4.55-0.0179-7.67-0.404-11.2-3.37-0.312-2.69-0.312-2.69 0-5 7.45-3.73 18.2-2.16 26.4-2.17z" fill="#000204"/>
<path transform="translate(703 835)" d="m0 0c1.07-0.00789 1.07-0.00789 2.16-0.0159 2.36-0.0132 4.71-0.00447 7.07 0.00568 1.64-0.00202 3.28-0.00493 4.92-0.0087 3.44-0.00442 6.88 2e-3 10.3 0.016 4.4 0.0171 8.81 0.00726 13.2-0.0107 3.39-0.0109 6.78-0.00738 10.2 3.83e-4 1.62 2e-3 3.25-4.43e-4 4.87-0.00744 2.27-0.00764 4.54 0.00403 6.81 0.0207 1.94 0.00358 1.94 0.00358 3.91 0.00723 3.63 0.409 5.54 1.12 8.38 3.38 0.875 3.12 0.875 3.12 1 6-1.59 1.59-3.21 1.13-5.41 1.13-0.945 0.0031-1.89 0.0062-2.86 0.0094-1.04-0.00197-2.07-0.00395-3.14-0.00598-1.07 0.00141-2.15 0.00282-3.25 0.00427-3.51 0.00215-7.01-0.00417-10.5-0.0121-1.77-0.00233-1.77-0.00233-3.58-0.0047-14.1-0.0219-28.2-0.0796-42.3-0.495-1.8-0.0462-1.8-0.0462-3.64-0.0933-1.08-0.0388-2.16-0.0777-3.27-0.118-0.91-0.0314-1.82-0.0628-2.76-0.0952-2.27-0.319-2.27-0.319-5.27-2.32 2.69-6.5 6.41-7.38 13.2-7.39z" fill="#000204"/>
<path transform="translate(704 770)" d="m0 0c0.696-0.00336 1.39-0.00672 2.11-0.0102 2.31-0.00952 4.61-0.0115 6.92-0.0125 1.6-0.00321 3.2-0.00658 4.81-0.0101 3.36-0.00599 6.72-0.00784 10.1-0.00725 4.31 1.02e-4 8.61-0.0135 12.9-0.0308 3.31-0.0111 6.62-0.0131 9.93-0.0126 1.59-0.00118 3.18-0.00561 4.76-0.0133 2.22-0.0098 4.44-0.00692 6.66-8.95e-4 1.26-0.00143 2.53-0.00285 3.83-0.00432 3.03 0.234 4.71 0.55 7.2 2.25 1.25 2.12 1.25 2.12 2 4-7.97 5.91-19.7 4.12-29.2 4.02-0.715-0.00696-1.43-0.0139-2.17-0.0211-3.77-0.0371-7.54-0.081-11.3-0.131-3.89-0.0497-7.78-0.0756-11.7-0.0964-3-0.0204-6-0.0582-9.01-0.101-1.43-0.0173-2.87-0.028-4.3-0.0319-2-0.00708-4-0.0414-6-0.0769-1.7-0.0178-1.7-0.0178-3.44-0.0361-3.51-0.631-4.7-1.8-6.93-4.53 4.45-4.6 6.35-5.13 12.8-5.15z" fill="#000204"/>
<path transform="translate(547 754)" d="m0 0c0.705-0.00832 1.41-0.0166 2.14-0.0252 2.32-0.0241 4.65-0.0329 6.97-0.0395 1.62-0.00897 3.24-0.0181 4.86-0.0274 3.39-0.0165 6.78-0.0242 10.2-0.0271 4.34-0.00539 8.68-0.0431 13-0.0887 3.34-0.0298 6.69-0.037 10-0.038 1.6-0.0042 3.2-0.0166 4.8-0.0375 2.24-0.0269 4.48-0.0221 6.72-0.00958 1.27-0.00507 2.55-0.0101 3.86-0.0154 4.18 0.769 5.67 2.4 8.35 5.61-2.67 2.8-3.99 3.95-7.98 4.14-1.28 0.00683-2.55 0.0137-3.87 0.0207-0.704 0.00496-1.41 0.00993-2.13 0.015-2.34 0.0146-4.67 0.0214-7.01 0.0269-1.62 0.00575-3.24 0.0115-4.87 0.0173-3.4 0.0105-6.81 0.0164-10.2 0.0198-4.36 0.00548-8.72 0.0295-13.1 0.058-3.35 0.0186-6.7 0.0238-10.1 0.0254-1.61 0.00302-3.21 0.011-4.82 0.0242-2.25 0.0171-4.5 0.0152-6.75 0.00869-1.28 0.00365-2.56 0.00729-3.88 0.011-3.57-0.391-5.47-1.28-8.36-3.37 0.25-1.88 0.25-1.88 1-4 3.51-2.44 6.9-2.27 11.1-2.31z" fill="#000204"/>
<path transform="translate(536,820)" d="m0 0c10.5-0.0463 21.1-0.0818 31.6-0.104 4.89-0.0105 9.78-0.0246 14.7-0.0473 4.71-0.0217 9.43-0.0337 14.1-0.0389 1.8-0.0037 3.6-0.0109 5.4-0.0217 2.52-0.0144 5.03-0.0165 7.55-0.0156 0.75-0.00719 1.5-0.0144 2.27-0.0218 5.16 0.0207 5.16 0.0207 7.39 2.25-0.125 2-0.125 2-1 4-3.6 2.49-7.6 2.45-11.8 2.67-0.757 0.0439-1.51 0.0879-2.29 0.133-1.6 0.0907-3.2 0.177-4.8 0.259-2.43 0.126-4.87 0.269-7.3 0.414-1.56 0.0863-3.11 0.172-4.67 0.256-0.722 0.0426-1.44 0.0853-2.19 0.129-4.14 0.203-7.85-0.0865-11.9-0.86-2.44 0.00546-4.88 0.0503-7.31 0.125-6.08 0.0895-11.9-0.399-17.9-1.44-1.06-0.177-1.06-0.177-2.14-0.357-4.11-0.773-7.23-1.95-10.7-4.33 0.33-0.99 0.66-1.98 1-3z" fill="#000204"/>
<path transform="translate(706,551)" d="m0 0h96c0.495 0.99 0.495 0.99 1 2 0.863 0.0198 1.73 0.0396 2.61 0.0601 3.2 0.0781 6.41 0.165 9.61 0.257 1.39 0.0383 2.77 0.0731 4.16 0.104 1.99 0.0457 3.99 0.105 5.98 0.164 1.8 0.0471 1.8 0.0471 3.63 0.0952 3 0.319 3 0.319 6 2.32h-32v2h-94v-2c-0.915 0.0232-1.83 0.0464-2.77 0.0703-1.78 0.0271-1.78 0.0271-3.6 0.0547-1.78 0.0348-1.78 0.0348-3.59 0.0703-3.04-0.195-3.04-0.195-5.04-2.2 4.95-0.33 9.9-0.66 15-1-0.99-0.66-1.98-1.32-3-2z" fill="#D6DADD"/>
<path transform="translate(548 196)" d="m0 0c0.826-0.00761 1.65-0.0152 2.5-0.0231 1.74-0.0108 3.49-0.0137 5.23-0.00916 2.66 9.72e-4 5.32-0.0407 7.99-0.085 1.7-0.00521 3.39-0.0079 5.09-0.00781 0.793-0.0164 1.59-0.0328 2.4-0.0497 4.25 0.0529 5.82 0.305 9.3 3.01 1.96 2.63 1.96 2.63 1.96 5.32-1 2.31-1 2.31-4 4.31-2.99 0.209-5.88 0.304-8.87 0.301-0.872 0.00429-1.74 0.00857-2.64 0.013-1.84 0.00574-3.69 0.00624-5.53 0.00191-2.82-0.00315-5.63 0.0203-8.45 0.0457-1.79 0.00227-3.59 0.00298-5.38 0.00195-0.84 0.00921-1.68 0.0184-2.54 0.0279-4.71-0.0371-7.7-0.416-11.6-3.39 1.44-5.39 1.44-5.39 3.55-7.67 3.56-1.93 7.03-1.8 11-1.8z" fill="#000204"/>
<path transform="translate(713 214)" d="m0 0c1.75-0.0166 3.49-0.0438 5.24-0.082 2.52-0.0549 5.04-0.0767 7.56-0.0913 1.17-0.034 1.17-0.034 2.36-0.0687 4.1 0.0159 5.94 0.419 9.2 2.98 1.96 2.61 1.96 2.61 1.77 4.92-0.268 0.557-0.536 1.11-0.812 1.69-5.39 1.81-9.98 2.26-15.6 2.12-1.2-0.0233-1.2-0.0233-2.43-0.0471-1.68-0.0366-3.37-0.0789-5.05-0.127-2.57-0.0684-5.15-0.104-7.72-0.139-1.64-0.0397-3.28-0.0813-4.92-0.125-0.767-0.0075-1.53-0.015-2.32-0.0227-3.64-0.133-5.56-0.368-8.43-2.7-0.49-0.646-0.98-1.29-1.49-1.96 7.06-7.25 13.1-6.28 22.7-6.35z" fill="#000204"/>
<path transform="translate(559 786)" d="m0 0c1.66 0.0255 3.33 0.0392 4.99 0.043 2.58 0.00963 5.16 0.06 7.74 0.119 0.806-0.00274 1.61-0.00548 2.44-0.0083 2.24 0.0766 4.11 0.208 6.24 0.883 4 4.61 4 4.61 4 8-4.77 1.22-9.43 1.16-14.3 1.17-1.34 0.00499-1.34 0.00499-2.71 0.0101-1.88 0.00505-3.77 0.00741-5.65 0.00725-2.88 0.00219-5.76 0.0204-8.64 0.0393-1.83 0.00293-3.67 0.00492-5.5 0.00586-1.29 0.0108-1.29 0.0108-2.61 0.0218-0.804-0.00308-1.61-0.00615-2.44-0.00932-1.06 0.00214-1.06 0.00214-2.13 0.00432-2.41-0.297-3.97-0.927-6-2.25-1-3-1-3-0.0625-5.12 5.59-5.08 17.5-3.04 24.6-2.91z" fill="#000204"/>
<path transform="translate(706 1393)" d="m0 0c1.39 0.0375 1.39 0.0375 2.8 0.0758 2.94 0.0819 5.89 0.179 8.83 0.276 2 0.0583 4 0.116 6 0.172 4.9 0.14 9.79 0.293 14.7 0.453 3 6.88 3 6.88 3 8-6.78 0.0506-13.6 0.0857-20.3 0.11-2.31 0.0101-4.62 0.0237-6.92 0.041-3.31 0.0242-6.63 0.0356-9.94 0.0444-1.03 0.0103-2.07 0.0206-3.13 0.0313-0.961 1.51e-4 -1.92 3.02e-4 -2.91 4.58e-4 -0.846 0.00444-1.69 0.00888-2.56 0.0135-2.18-0.241-2.18-0.241-5.18-2.24 0.188-2.38 0.188-2.38 1-5 4.6-2.75 9.52-2.16 14.7-1.98z" fill="#000204"/>
<path transform="translate(778 537)" d="m0 0h2.01c29.9 0.00725 59.7 0.499 89.6 1.12v1c-57.6 1.65-115 2.07-173 0v-1c27.1-0.697 54.3-1.12 81.4-1.12z" fill="#D3D7DA"/>
<path transform="translate(821 505)" d="m0 0c3.58-0.00161 7.16-0.00517 10.7-0.00919 5.71-0.00589 11.4-0.00606 17.1-0.00175 2.12 9.9e-4 4.24 4.24e-4 6.36-0.00184 10.7-0.00938 21.3 0.0322 32 1.14v1c-4.81 0.147-9.62 0.289-14.4 0.427-1.62 0.0472-3.25 0.0956-4.87 0.146-9.67 0.296-19.3 0.464-29 0.455-1.08-6.27e-4 -2.15-0.00125-3.26-0.0019-13.3-0.0169-26.7-0.131-40-0.244-2.74-0.0226-5.49-0.0449-8.23-0.0673-6.41-0.0523-12.8-0.106-19.2-0.159-7.32-0.0613-14.6-0.121-21.9-0.181-15-0.123-30-0.248-45-0.373v-1c39.9-0.828 79.9-1.11 120-1.12z" fill="#D3D7DA"/>
<path transform="translate(579 1380)" d="m0 0c1.09 1.52 1.09 1.52 1.09 3.52 0.66 0.33 1.32 0.66 2 1h-47c3.45-5.75 4.95-6.39 11-8 9.61-1.96 24.8-2.8 32.9 3.48z" fill="#000204"/>
<path transform="translate(713 802)" d="m0 0c8.62-0.208 18 0.254 25.4 5.12 0.495 1.49 0.495 1.49 1 3h-46c-0.33-0.99-0.66-1.98-1-3 7.03-3.1 12.9-4.76 20.6-5.12z" fill="#000204"/>
</svg>
